<?xml version="1.0" encoding="UTF-8" standalone="no"?>
<!-- Created with Inkscape (http://www.inkscape.org/) -->

<svg
   xmlns:dc="http://purl.org/dc/elements/1.1/"
   xmlns:cc="http://creativecommons.org/ns#"
   xmlns:rdf="http://www.w3.org/1999/02/22-rdf-syntax-ns#"
   xmlns:svg="http://www.w3.org/2000/svg"
   xmlns="http://www.w3.org/2000/svg"
   xmlns:sodipodi="http://sodipodi.sourceforge.net/DTD/sodipodi-0.dtd"
   xmlns:inkscape="http://www.inkscape.org/namespaces/inkscape"
   width="191.54468mm"
   height="53.667557mm"
   viewBox="0 0 191.54468 53.667557"
   version="1.1"
   id="svg8"
   inkscape:version="0.92.4 (5da689c313, 2019-01-14)"
   sodipodi:docname="GratisLogoYellow.svg">
  <defs
     id="defs2" />
  <sodipodi:namedview
     id="base"
     pagecolor="#ffffff"
     bordercolor="#666666"
     borderopacity="1.0"
     inkscape:pageopacity="0.0"
     inkscape:pageshadow="2"
     inkscape:zoom="1.979899"
     inkscape:cx="373.46024"
     inkscape:cy="134.5412"
     inkscape:document-units="mm"
     inkscape:current-layer="text3717"
     showgrid="false"
     inkscape:window-width="1920"
     inkscape:window-height="1017"
     inkscape:window-x="1352"
     inkscape:window-y="-8"
     inkscape:window-maximized="1"
     fit-margin-top="0"
     fit-margin-left="0"
     fit-margin-right="0"
     fit-margin-bottom="0" />
  <metadata
     id="metadata5">
    <rdf:RDF>
      <cc:Work
         rdf:about="">
        <dc:format>image/svg+xml</dc:format>
        <dc:type
           rdf:resource="http://purl.org/dc/dcmitype/StillImage" />
        <dc:title></dc:title>
      </cc:Work>
    </rdf:RDF>
  </metadata>
  <g
     inkscape:label="Layer 1"
     inkscape:groupmode="layer"
     id="layer1"
     transform="translate(-10.857363,-8.5084319)">
    <g
       aria-label="Gratis"
       style="font-style:normal;font-variant:normal;font-weight:normal;font-stretch:normal;font-size:70.86750793px;line-height:1.25;font-family:'Sitka Heading';-inkscape-font-specification:'Sitka Heading';letter-spacing:0px;word-spacing:0px;fill:#000000;fill-opacity:1;stroke:none;stroke-width:0.36910161"
       id="text3717"
       transform="translate(-3.7797616)">
      <text
         xml:space="preserve"
         style="font-style:normal;font-variant:normal;font-weight:normal;font-stretch:normal;font-size:89.9286499px;line-height:1.25;font-family:'Mongolian Baiti';-inkscape-font-specification:'Mongolian Baiti';letter-spacing:0px;word-spacing:0px;fill:#000000;fill-opacity:1;stroke:none;stroke-width:0.1728792"
         x="9.2025537"
         y="70.976448"
         id="text3772"
         transform="scale(1.1838399,0.84470881)"><tspan
           sodipodi:role="line"
           id="tspan3770"
           x="9.2025537"
           y="70.976448"
           style="font-style:normal;font-variant:normal;font-weight:normal;font-stretch:normal;font-size:89.9286499px;font-family:'Mongolian Baiti';-inkscape-font-specification:'Mongolian Baiti';stroke-width:0.1728792">G</tspan></text>
      <text
         xml:space="preserve"
         style="font-style:normal;font-variant:normal;font-weight:normal;font-stretch:normal;font-size:105.87575531px;line-height:1.25;font-family:'Mongolian Baiti';-inkscape-font-specification:'Mongolian Baiti';letter-spacing:0px;word-spacing:0px;fill:#000000;fill-opacity:1;stroke:none;stroke-width:0.20353602"
         x="60.318073"
         y="72.053627"
         id="text3776"
         transform="scale(1.2675375,0.78893129)"><tspan
           sodipodi:role="line"
           id="tspan3774"
           x="60.318073"
           y="72.053627"
           style="font-style:normal;font-variant:normal;font-weight:normal;font-stretch:normal;font-size:105.87575531px;font-family:'Mongolian Baiti';-inkscape-font-specification:'Mongolian Baiti';stroke-width:0.20353602">r</tspan></text>
      <text
         xml:space="preserve"
         style="font-style:normal;font-variant:normal;font-weight:normal;font-stretch:normal;font-size:82.32697296px;line-height:1.25;font-family:'Mongolian Baiti';-inkscape-font-specification:'Mongolian Baiti';letter-spacing:0px;word-spacing:0px;fill:#000000;fill-opacity:1;stroke:none;stroke-width:0.15826569"
         x="110.61468"
         y="50.418766"
         id="text3780"><tspan
           sodipodi:role="line"
           id="tspan3778"
           x="110.61468"
           y="50.418766"
           style="font-style:normal;font-variant:normal;font-weight:normal;font-stretch:normal;font-size:82.32697296px;font-family:'Mongolian Baiti';-inkscape-font-specification:'Mongolian Baiti';stroke-width:0.15826569">a</tspan></text>
      <text
         xml:space="preserve"
         style="font-style:normal;font-variant:normal;font-weight:normal;font-stretch:normal;font-size:87.21135712px;line-height:1.25;font-family:'Mongolian Baiti';-inkscape-font-specification:'Mongolian Baiti';letter-spacing:0px;word-spacing:0px;fill:#000000;fill-opacity:1;stroke:none;stroke-width:0.16765547"
         x="139.11417"
         y="61.537235"
         id="text3784"><tspan
           sodipodi:role="line"
           id="tspan3782"
           x="139.11417"
           y="61.537235"
           style="font-style:normal;font-variant:normal;font-weight:normal;font-stretch:normal;font-size:87.21135712px;font-family:'Mongolian Baiti';-inkscape-font-specification:'Mongolian Baiti';stroke-width:0.16765547">t</tspan></text>
      <text
         xml:space="preserve"
         style="font-style:normal;font-variant:normal;font-weight:normal;font-stretch:normal;font-size:75.12927246px;line-height:1.25;font-family:'Mongolian Baiti';-inkscape-font-specification:'Mongolian Baiti';letter-spacing:0px;word-spacing:0px;fill:#000000;fill-opacity:1;stroke:none;stroke-width:0.14442877"
         x="158.59087"
         y="62.138905"
         id="text3788"><tspan
           sodipodi:role="line"
           id="tspan3786"
           x="158.59087"
           y="62.138905"
           style="stroke-width:0.14442877">i</tspan></text>
      <text
         xml:space="preserve"
         style="font-style:normal;font-variant:normal;font-weight:normal;font-stretch:normal;font-size:90.6215744px;line-height:1.25;font-family:'Mongolian Baiti';-inkscape-font-specification:'Mongolian Baiti';letter-spacing:0px;word-spacing:0px;fill:#000000;fill-opacity:1;stroke:none;stroke-width:0.17421129"
         x="170.51913"
         y="55.410225"
         id="text3792"><tspan
           sodipodi:role="line"
           id="tspan3790"
           x="170.51913"
           y="55.410225"
           style="stroke-width:0.17421129">s</tspan></text>
      <text
         xml:space="preserve"
         style="font-style:normal;font-variant:normal;font-weight:normal;font-stretch:normal;font-size:6.60648108px;line-height:1.25;font-family:'Mongolian Baiti';-inkscape-font-specification:'Mongolian Baiti';letter-spacing:0px;word-spacing:0px;fill:#000000;fill-opacity:1;stroke:none;stroke-width:0.01270032"
         x="201.38177"
         y="15.098017"
         id="text3816"><tspan
           sodipodi:role="line"
           id="tspan3814"
           x="201.38177"
           y="15.098017"
           style="stroke-width:0.01270032">©</tspan></text>
      <path
         style="stroke-width:1.05457604;fill:#d4aa00"
         d="m 636.44268,177.37344 c -12.60166,-2.72966 -19.88439,-3.06786 -23.57143,-1.09462 -5.02959,2.69175 -5.33552,1.348 -5.33552,-23.43552 0,-14.46005 0.65875,-25.63225 1.46388,-24.82711 0.80514,0.80514 4.98371,8.41228 9.28572,16.90476 13.95742,27.553 43.75876,37.08636 61.25107,19.59404 7.45652,-7.45651 8.46496,-10.1769 7.03623,-18.98113 -2.26982,-13.98723 -8.67069,-19.98231 -38.73567,-36.27996 C 614.727,91.305626 609.74232,85.950975 608.32785,66.812369 c -2.54901,-34.48948 25.60757,-52.126029 66.69963,-41.778927 9.6079,2.419298 13.70305,2.419298 16.12234,0 6.46161,-6.461601 7.81448,-2.81861 7.81448,21.04267 0,13.357143 -1.0822,24.285714 -2.40489,24.285714 -1.32269,0 -3.92551,-5.075337 -5.78403,-11.278526 -4.13192,-13.791141 -17.40189,-27.61279 -28.94467,-30.148009 -27.3247,-6.001511 -46.99244,16.717411 -31.51074,36.399201 3.10276,3.94452 16.12103,12.623968 28.92949,19.28766 39.79667,20.704498 54.33318,38.941018 48.17,60.430768 -3.93818,13.73166 -10.42996,21.89273 -22.06838,27.743 -15.57664,7.82991 -28.36705,9.02701 -48.9084,4.57752 z"
         id="path3818"
         inkscape:connector-curvature="0"
         transform="matrix(0.26458333,0,0,0.26458333,14.637125,8.5084319)" />
      <path
         style="fill:#ffcc00;stroke-width:1.05457604"
         d="m 633.25001,175.70499 c -7.07143,-1.43119 -15.07313,-2.06244 -17.78156,-1.40277 -6.14302,1.4962 -9.5102,-13.2073 -6.58966,-28.77513 l 1.97901,-10.54903 8.38946,13.47887 c 4.61421,7.41339 12.54532,16.01279 17.62468,19.10978 21.22497,12.9413 50.66379,2.0939 50.66379,-18.66822 0,-13.69506 -10.80221,-24.91644 -39.18605,-40.70663 -31.26951,-17.395511 -37.95681,-25.154034 -37.95681,-44.036985 0,-16.551336 5.75503,-28.040177 17.53033,-34.996017 6.58838,-3.891852 13.99104,-4.663819 37.96128,-3.958689 l 29.77691,0.875943 1.63848,8.149421 c 0.90117,4.482182 0.81807,13.280028 -0.18466,19.550767 l -1.82315,11.401349 -6.23101,-12.407912 C 677.92665,30.597641 655.64036,21.689382 636.3115,31.684725 c -8.93503,4.620487 -11.63292,9.544889 -11.63292,21.233375 0,9.875926 9.49345,18.810552 36.56035,34.408269 37.56715,21.648651 48.83245,35.766301 44.96979,56.356041 -3.70514,19.75009 -27.33015,35.76071 -51.53014,34.92186 -4.71428,-0.1634 -14.35714,-1.46808 -21.42857,-2.89928 z"
         id="path3820"
         inkscape:connector-curvature="0"
         transform="matrix(0.26458333,0,0,0.26458333,14.637125,8.5084319)" />
      <path
         style="fill:#ffcc00;stroke-width:1.05457604"
         d="m 513.30633,198.12054 c -10.548,-5.33703 -14.25306,-15.39134 -14.29992,-38.80546 l -0.0421,-21.04675 -11.62126,10.49911 c -9.14317,8.2603 -13.56026,10.31127 -20.71428,9.61818 -7.48012,-0.72468 -9.57795,-2.52803 -11.82675,-10.16665 -1.50351,-5.10714 -3.4362,-9.28572 -4.29483,-9.28572 -0.85862,0 -7.89051,4.5 -15.62637,10 -29.40417,20.90561 -58.77365,8.91346 -58.77365,-23.99846 0,-20.04949 20.10482,-36.799038 63.9082,-53.242598 l 13.9082,-5.221066 -1.60489,-13.55078 c -2.05294,-17.333857 -6.91134,-25.016191 -17.64009,-27.893412 -9.67751,-2.5953 -24.15448,0.548854 -27.61251,5.996975 -1.265,1.992997 -2.31969,9.015011 -2.34374,15.604477 -0.0331,9.11108 -1.56477,13.046209 -6.39377,16.428571 -8.42766,5.902978 -16.04586,5.609098 -34.60549,-1.334951 -18.39703,-6.883211 -24.23497,-5.379603 -39.75877,10.240217 l -10.71429,10.780554 0.0172,33.095243 c 0.0171,33.52532 3.15511,52.61477 9.27354,56.39616 1.84997,1.14335 9.83808,3.65189 17.75134,5.57453 12.81806,3.11434 8.15357,3.48884 -42.75511,3.43272 -43.49586,-0.0479 -54.07321,-0.71465 -44.28692,-2.79139 21.87274,-4.64159 22.85715,-7.34152 22.85715,-62.69045 0,-45.378733 -0.36158,-48.616481 -6.06629,-54.321195 -5.23101,-5.231003 -8.17038,-5.818998 -21.34724,-4.270318 -14.7861,1.737818 -15.42251,1.522218 -19.65251,-6.657702 C 213.06917,19.624033 169.37101,2.9939605 123.45739,10.328698 100.31474,14.025753 84.308073,21.532955 69.436487,35.664755 50.510844,53.648937 46.122107,65.024129 46.128782,96.076112 c 0.0051,23.880058 0.921997,28.881918 7.627294,41.609868 19.00402,36.07333 58.205464,55.4103 104.930844,51.75943 11.93827,-0.93278 26.84881,-3.49242 33.13452,-5.68807 l 11.42857,-3.99209 v -36.03546 c 0,-41.76855 -1.47979,-44.77681 -23.53847,-47.851221 -7.52841,-1.049263 10.00263,-1.906877 39.25276,-1.920232 29.46273,-0.01343 47.45763,0.854363 40.65752,1.960732 -6.7098,1.091674 -13.78122,3.56498 -15.71429,5.496241 -2.32255,2.32038 -3.85178,16.53708 -4.50859,41.9148 l -0.99392,38.40343 -19.00608,6.10933 c -27.03788,8.69109 -93.84851,10.90778 -124.33463,4.12526 C 52.601696,182.52109 22.007125,161.08244 8.3184055,131.18234 -5.4293968,101.15319 2.9901095,68.363577 31.610922,40.470069 67.900082,5.1030845 123.7083,-6.2788923 190.79168,8.0054677 l 29.18773,6.2150703 4.12665,-6.2150703 c 2.26966,-3.4182889 5.10347,-6.2150703 6.29737,-6.2150703 1.19389,0 3.09965,11.2499996 4.23501,24.9999996 1.13537,13.75 2.56426,25.827115 3.17531,26.838032 0.61105,1.01092 15.58419,-1.853792 33.27363,-6.36602 43.9478,-11.210214 42.16263,-11.5229 42.16263,7.385131 0,8.642857 1.04517,15.714286 2.3226,15.714286 1.27743,0 6.09886,-4.019757 10.71429,-8.932794 10.43391,-11.106712 33.85474,-22.430829 46.4686,-22.467866 6.6162,-0.01943 11.98011,-2.50252 17.64668,-8.169097 21.50692,-21.5069139 73.61709,-17.901926 80.59969,5.575894 1.12066,3.768054 2.7594,10.415043 3.64166,14.771086 1.36171,6.723331 2.41817,7.484406 6.99157,5.036786 10.12568,-5.419092 23.30208,-20.792552 31.60963,-36.88023 l 8.30185,-16.0766362 0.13743,25.0000002 0.13743,25 h 17.14286 c 13.33334,0 17.14286,0.95238 17.14286,4.285714 0,3.333334 -3.80952,4.285714 -17.14286,4.285714 h -17.14286 l 0.042,53.571433 c 0.0294,37.28411 1.13526,55.74307 3.63763,60.71428 4.93663,9.80709 17.61546,11.03487 26.61783,2.5776 8.42626,-7.91605 9.00574,-3.23765 0.87871,7.09418 -6.68088,8.49338 -19.67537,16.06418 -27.46297,16.00039 -2.82803,-0.0231 -8.33083,-1.65565 -12.22843,-3.62774 z m -72.4502,-60.7363 12.39388,-7.26329 v -28.38028 c 0,-28.367141 -0.003,-28.379121 -6.51874,-25.901844 -19.12023,7.269491 -34.29686,16.095977 -40.64194,23.636671 -9.73032,11.563833 -9.78003,28.491073 -0.112,38.159053 8.99017,8.9902 19.23657,8.91666 34.87883,-0.25031 z m 52.8832,-0.32238 c 4.52434,-4.09448 5.22497,-9.45813 5.22497,-40 V 61.790397 h -11.42857 -11.42857 v 38.095238 c 0,20.952385 0.85714,38.952385 1.90477,39.999995 3.32257,3.32258 10.325,2.06533 15.7274,-2.82377 z"
         id="path3822"
         inkscape:connector-curvature="0"
         transform="matrix(0.26458333,0,0,0.26458333,14.637125,8.5084319)" />
      <path
         style="fill:#ffcc00;stroke-width:1.05457604"
         d="m 560.89967,199.80121 c 11.87986,-2.31256 13.73145,-8.33359 14.67829,-47.73121 0.49466,-20.58235 -0.202,-42.56532 -1.54813,-48.85103 -2.19033,-10.22771 -3.48569,-11.57868 -12.32784,-12.857144 -9.72579,-1.406227 -9.5664,-1.551464 10.19031,-9.285714 11.03885,-4.321429 21.00308,-7.857143 22.14274,-7.857143 1.13966,0 2.0918,26.035714 2.11587,57.857141 0.024,31.82143 1.09793,59.51882 2.38637,61.54977 1.28845,2.03094 6.09019,4.81329 10.67054,6.18299 5.86647,1.7543 -0.96128,2.44795 -23.10066,2.34686 -17.28572,-0.0789 -28.62909,-0.68847 -25.20749,-1.35452 z"
         id="path3824"
         inkscape:connector-curvature="0"
         transform="matrix(0.26458333,0,0,0.26458333,14.637125,8.5084319)" />
      <path
         style="fill:#ffcc00;stroke-width:1.05457604"
         d=""
         id="path3826"
         inkscape:connector-curvature="0"
         transform="matrix(0.26458333,0,0,0.26458333,14.637125,8.5084319)" />
      <path
         style="fill:#ffcc00;stroke-width:1.05457604"
         d="m 578.25001,30.143002 c -5.73974,-3.354608 -6.62347,-14.157699 -1.57143,-19.209747 9.69799,-9.6979839 25.85478,1.706811 19.42858,13.714285 -1.68201,3.142857 -3.55066,5.714286 -4.15257,5.714286 -0.6019,0 -2.80666,0.608273 -4.89947,1.351719 -2.09281,0.743445 -6.05511,0.0367 -8.80511,-1.570543 z"
         id="path3828"
         inkscape:connector-curvature="0"
         transform="matrix(0.26458333,0,0,0.26458333,14.637125,8.5084319)" />
      <path
         style="fill:#ffcc00;stroke-width:0.18642446"
         d="m 711.99805,23.390006 c -4.9576,-2.312485 -5.68287,-8.676716 -1.44047,-12.640166 1.96798,-1.8385792 6.48015,-2.0712435 8.82859,-0.455235 4.64904,3.199105 4.63787,9.197084 -0.0236,12.677389 -1.91149,1.427133 -4.84424,1.593597 -7.3645,0.418012 z m 6.77993,-2.274863 c 0.77942,-0.670848 1.24805,-1.389188 1.04141,-1.596311 -0.20664,-0.207124 -0.77485,-0.02606 -1.26269,0.402368 -3.87523,3.403275 -8.45077,-1.312979 -5.95538,-6.138533 1.2519,-2.4209 5.30764,-2.463019 6.06937,-0.06303 0.53847,1.696554 1.27187,1.184164 1.27187,-0.888587 v -1.927672 l -3.20608,0.05142 c -3.82671,0.06138 -5.63049,1.050426 -6.73448,3.692658 -2.205,5.277308 4.45575,10.18612 8.77598,6.467687 z"
         id="path3830"
         inkscape:connector-curvature="0"
         transform="matrix(0.26458333,0,0,0.26458333,14.637125,8.5084319)" />
    </g>
  </g>
</svg>
