<?xml version="1.0" encoding="UTF-8" standalone="no"?>
<!-- Created with Inkscape (http://www.inkscape.org/) -->

<svg
   xmlns:dc="http://purl.org/dc/elements/1.1/"
   xmlns:cc="http://creativecommons.org/ns#"
   xmlns:rdf="http://www.w3.org/1999/02/22-rdf-syntax-ns#"
   xmlns:svg="http://www.w3.org/2000/svg"
   xmlns="http://www.w3.org/2000/svg"
   xmlns:sodipodi="http://sodipodi.sourceforge.net/DTD/sodipodi-0.dtd"
   xmlns:inkscape="http://www.inkscape.org/namespaces/inkscape"
   width="191.54468mm"
   height="53.667557mm"
   viewBox="0 0 191.54468 53.667557"
   version="1.1"
   id="svg8"
   inkscape:version="0.92.4 (5da689c313, 2019-01-14)"
   sodipodi:docname="GratisLogoYellowHighlights.svg">
  <defs
     id="defs2" />
  <sodipodi:namedview
     id="base"
     pagecolor="#ffffff"
     bordercolor="#666666"
     borderopacity="1.0"
     inkscape:pageopacity="0.0"
     inkscape:pageshadow="2"
     inkscape:zoom="1.4"
     inkscape:cx="436.49599"
     inkscape:cy="26.807562"
     inkscape:document-units="mm"
     inkscape:current-layer="text3717"
     showgrid="false"
     inkscape:window-width="1920"
     inkscape:window-height="1017"
     inkscape:window-x="1352"
     inkscape:window-y="-8"
     inkscape:window-maximized="1"
     fit-margin-top="0"
     fit-margin-left="0"
     fit-margin-right="0"
     fit-margin-bottom="0" />
  <metadata
     id="metadata5">
    <rdf:RDF>
      <cc:Work
         rdf:about="">
        <dc:format>image/svg+xml</dc:format>
        <dc:type
           rdf:resource="http://purl.org/dc/dcmitype/StillImage" />
        <dc:title></dc:title>
      </cc:Work>
    </rdf:RDF>
  </metadata>
  <g
     inkscape:label="Layer 1"
     inkscape:groupmode="layer"
     id="layer1"
     transform="translate(-10.857363,-8.5084319)">
    <g
       aria-label="Gratis"
       style="font-style:normal;font-variant:normal;font-weight:normal;font-stretch:normal;font-size:70.86750793px;line-height:1.25;font-family:'Sitka Heading';-inkscape-font-specification:'Sitka Heading';letter-spacing:0px;word-spacing:0px;fill:#000000;fill-opacity:1;stroke:none;stroke-width:0.36910161"
       id="text3717"
       transform="translate(-3.7797616)">
      <text
         xml:space="preserve"
         style="font-style:normal;font-variant:normal;font-weight:normal;font-stretch:normal;font-size:89.9286499px;line-height:1.25;font-family:'Mongolian Baiti';-inkscape-font-specification:'Mongolian Baiti';letter-spacing:0px;word-spacing:0px;fill:#000000;fill-opacity:1;stroke:none;stroke-width:0.1728792"
         x="9.2025537"
         y="70.976448"
         id="text3772"
         transform="scale(1.1838399,0.84470881)"><tspan
           sodipodi:role="line"
           id="tspan3770"
           x="9.2025537"
           y="70.976448"
           style="font-style:normal;font-variant:normal;font-weight:normal;font-stretch:normal;font-size:89.9286499px;font-family:'Mongolian Baiti';-inkscape-font-specification:'Mongolian Baiti';stroke-width:0.1728792">G</tspan></text>
      <text
         xml:space="preserve"
         style="font-style:normal;font-variant:normal;font-weight:normal;font-stretch:normal;font-size:105.87575531px;line-height:1.25;font-family:'Mongolian Baiti';-inkscape-font-specification:'Mongolian Baiti';letter-spacing:0px;word-spacing:0px;fill:#000000;fill-opacity:1;stroke:none;stroke-width:0.20353602"
         x="60.318073"
         y="72.053627"
         id="text3776"
         transform="scale(1.2675375,0.78893129)"><tspan
           sodipodi:role="line"
           id="tspan3774"
           x="60.318073"
           y="72.053627"
           style="font-style:normal;font-variant:normal;font-weight:normal;font-stretch:normal;font-size:105.87575531px;font-family:'Mongolian Baiti';-inkscape-font-specification:'Mongolian Baiti';stroke-width:0.20353602">r</tspan></text>
      <text
         xml:space="preserve"
         style="font-style:normal;font-variant:normal;font-weight:normal;font-stretch:normal;font-size:82.32697296px;line-height:1.25;font-family:'Mongolian Baiti';-inkscape-font-specification:'Mongolian Baiti';letter-spacing:0px;word-spacing:0px;fill:#000000;fill-opacity:1;stroke:none;stroke-width:0.15826569"
         x="110.61468"
         y="50.418766"
         id="text3780"><tspan
           sodipodi:role="line"
           id="tspan3778"
           x="110.61468"
           y="50.418766"
           style="font-style:normal;font-variant:normal;font-weight:normal;font-stretch:normal;font-size:82.32697296px;font-family:'Mongolian Baiti';-inkscape-font-specification:'Mongolian Baiti';stroke-width:0.15826569">a</tspan></text>
      <text
         xml:space="preserve"
         style="font-style:normal;font-variant:normal;font-weight:normal;font-stretch:normal;font-size:87.21135712px;line-height:1.25;font-family:'Mongolian Baiti';-inkscape-font-specification:'Mongolian Baiti';letter-spacing:0px;word-spacing:0px;fill:#000000;fill-opacity:1;stroke:none;stroke-width:0.16765547"
         x="139.11417"
         y="61.537235"
         id="text3784"><tspan
           sodipodi:role="line"
           id="tspan3782"
           x="139.11417"
           y="61.537235"
           style="font-style:normal;font-variant:normal;font-weight:normal;font-stretch:normal;font-size:87.21135712px;font-family:'Mongolian Baiti';-inkscape-font-specification:'Mongolian Baiti';stroke-width:0.16765547">t</tspan></text>
      <text
         xml:space="preserve"
         style="font-style:normal;font-variant:normal;font-weight:normal;font-stretch:normal;font-size:75.12927246px;line-height:1.25;font-family:'Mongolian Baiti';-inkscape-font-specification:'Mongolian Baiti';letter-spacing:0px;word-spacing:0px;fill:#000000;fill-opacity:1;stroke:none;stroke-width:0.14442877"
         x="158.59087"
         y="62.138905"
         id="text3788"><tspan
           sodipodi:role="line"
           id="tspan3786"
           x="158.59087"
           y="62.138905"
           style="stroke-width:0.14442877">i</tspan></text>
      <text
         xml:space="preserve"
         style="font-style:normal;font-variant:normal;font-weight:normal;font-stretch:normal;font-size:90.6215744px;line-height:1.25;font-family:'Mongolian Baiti';-inkscape-font-specification:'Mongolian Baiti';letter-spacing:0px;word-spacing:0px;fill:#000000;fill-opacity:1;stroke:none;stroke-width:0.17421129"
         x="170.51913"
         y="55.410225"
         id="text3792"><tspan
           sodipodi:role="line"
           id="tspan3790"
           x="170.51913"
           y="55.410225"
           style="stroke-width:0.17421129">s</tspan></text>
      <text
         xml:space="preserve"
         style="font-style:normal;font-variant:normal;font-weight:normal;font-stretch:normal;font-size:6.60648108px;line-height:1.25;font-family:'Mongolian Baiti';-inkscape-font-specification:'Mongolian Baiti';letter-spacing:0px;word-spacing:0px;fill:#000000;fill-opacity:1;stroke:none;stroke-width:0.01270032"
         x="201.38177"
         y="15.098017"
         id="text3816"><tspan
           sodipodi:role="line"
           id="tspan3814"
           x="201.38177"
           y="15.098017"
           style="stroke-width:0.01270032">©</tspan></text>
      <path
         style="stroke-width:1.05457604;fill:#d4aa00"
         d="m 636.44268,177.37344 c -12.60166,-2.72966 -19.88439,-3.06786 -23.57143,-1.09462 -5.02959,2.69175 -5.33552,1.348 -5.33552,-23.43552 0,-14.46005 0.65875,-25.63225 1.46388,-24.82711 0.80514,0.80514 4.98371,8.41228 9.28572,16.90476 13.95742,27.553 43.75876,37.08636 61.25107,19.59404 7.45652,-7.45651 8.46496,-10.1769 7.03623,-18.98113 -2.26982,-13.98723 -8.67069,-19.98231 -38.73567,-36.27996 C 614.727,91.305626 609.74232,85.950975 608.32785,66.812369 c -2.54901,-34.48948 25.60757,-52.126029 66.69963,-41.778927 9.6079,2.419298 13.70305,2.419298 16.12234,0 6.46161,-6.461601 7.81448,-2.81861 7.81448,21.04267 0,13.357143 -1.0822,24.285714 -2.40489,24.285714 -1.32269,0 -3.92551,-5.075337 -5.78403,-11.278526 -4.13192,-13.791141 -17.40189,-27.61279 -28.94467,-30.148009 -27.3247,-6.001511 -46.99244,16.717411 -31.51074,36.399201 3.10276,3.94452 16.12103,12.623968 28.92949,19.28766 39.79667,20.704498 54.33318,38.941018 48.17,60.430768 -3.93818,13.73166 -10.42996,21.89273 -22.06838,27.743 -15.57664,7.82991 -28.36705,9.02701 -48.9084,4.57752 z"
         id="path3818"
         inkscape:connector-curvature="0"
         transform="matrix(0.26458333,0,0,0.26458333,14.637125,8.5084319)" />
      <path
         style="fill:#ffcc00;stroke-width:1.05457604"
         d="m 633.25001,175.70499 c -7.07143,-1.43119 -15.07313,-2.06244 -17.78156,-1.40277 -6.14302,1.4962 -9.5102,-13.2073 -6.58966,-28.77513 l 1.97901,-10.54903 8.38946,13.47887 c 4.61421,7.41339 12.54532,16.01279 17.62468,19.10978 21.22497,12.9413 50.66379,2.0939 50.66379,-18.66822 0,-13.69506 -10.80221,-24.91644 -39.18605,-40.70663 -31.26951,-17.395511 -37.95681,-25.154034 -37.95681,-44.036985 0,-16.551336 5.75503,-28.040177 17.53033,-34.996017 6.58838,-3.891852 13.99104,-4.663819 37.96128,-3.958689 l 29.77691,0.875943 1.63848,8.149421 c 0.90117,4.482182 0.81807,13.280028 -0.18466,19.550767 l -1.82315,11.401349 -6.23101,-12.407912 C 677.92665,30.597641 655.64036,21.689382 636.3115,31.684725 c -8.93503,4.620487 -11.63292,9.544889 -11.63292,21.233375 0,9.875926 9.49345,18.810552 36.56035,34.408269 37.56715,21.648651 48.83245,35.766301 44.96979,56.356041 -3.70514,19.75009 -27.33015,35.76071 -51.53014,34.92186 -4.71428,-0.1634 -14.35714,-1.46808 -21.42857,-2.89928 z"
         id="path3820"
         inkscape:connector-curvature="0"
         transform="matrix(0.26458333,0,0,0.26458333,14.637125,8.5084319)" />
      <path
         style="fill:#ffcc00;stroke-width:1.05457604"
         d="m 513.30633,198.12054 c -10.548,-5.33703 -14.25306,-15.39134 -14.29992,-38.80546 l -0.0421,-21.04675 -11.62126,10.49911 c -9.14317,8.2603 -13.56026,10.31127 -20.71428,9.61818 -7.48012,-0.72468 -9.57795,-2.52803 -11.82675,-10.16665 -1.50351,-5.10714 -3.4362,-9.28572 -4.29483,-9.28572 -0.85862,0 -7.89051,4.5 -15.62637,10 -29.40417,20.90561 -58.77365,8.91346 -58.77365,-23.99846 0,-20.04949 20.10482,-36.799038 63.9082,-53.242598 l 13.9082,-5.221066 -1.60489,-13.55078 c -2.05294,-17.333857 -6.91134,-25.016191 -17.64009,-27.893412 -9.67751,-2.5953 -24.15448,0.548854 -27.61251,5.996975 -1.265,1.992997 -2.31969,9.015011 -2.34374,15.604477 -0.0331,9.11108 -1.56477,13.046209 -6.39377,16.428571 -8.42766,5.902978 -16.04586,5.609098 -34.60549,-1.334951 -18.39703,-6.883211 -24.23497,-5.379603 -39.75877,10.240217 l -10.71429,10.780554 0.0172,33.095243 c 0.0171,33.52532 3.15511,52.61477 9.27354,56.39616 1.84997,1.14335 9.83808,3.65189 17.75134,5.57453 12.81806,3.11434 8.15357,3.48884 -42.75511,3.43272 -43.49586,-0.0479 -54.07321,-0.71465 -44.28692,-2.79139 21.87274,-4.64159 22.85715,-7.34152 22.85715,-62.69045 0,-45.378733 -0.36158,-48.616481 -6.06629,-54.321195 -5.23101,-5.231003 -8.17038,-5.818998 -21.34724,-4.270318 -14.7861,1.737818 -15.42251,1.522218 -19.65251,-6.657702 C 213.06917,19.624033 169.37101,2.9939605 123.45739,10.328698 100.31474,14.025753 84.308073,21.532955 69.436487,35.664755 50.510844,53.648937 46.122107,65.024129 46.128782,96.076112 c 0.0051,23.880058 0.921997,28.881918 7.627294,41.609868 19.00402,36.07333 58.205464,55.4103 104.930844,51.75943 11.93827,-0.93278 26.84881,-3.49242 33.13452,-5.68807 l 11.42857,-3.99209 v -36.03546 c 0,-41.76855 -1.47979,-44.77681 -23.53847,-47.851221 -7.52841,-1.049263 10.00263,-1.906877 39.25276,-1.920232 29.46273,-0.01343 47.45763,0.854363 40.65752,1.960732 -6.7098,1.091674 -13.78122,3.56498 -15.71429,5.496241 -2.32255,2.32038 -3.85178,16.53708 -4.50859,41.9148 l -0.99392,38.40343 -19.00608,6.10933 c -27.03788,8.69109 -93.84851,10.90778 -124.33463,4.12526 C 52.601696,182.52109 22.007125,161.08244 8.3184055,131.18234 -5.4293968,101.15319 2.9901095,68.363577 31.610922,40.470069 67.900082,5.1030845 123.7083,-6.2788923 190.79168,8.0054677 l 29.18773,6.2150703 4.12665,-6.2150703 c 2.26966,-3.4182889 5.10347,-6.2150703 6.29737,-6.2150703 1.19389,0 3.09965,11.2499996 4.23501,24.9999996 1.13537,13.75 2.56426,25.827115 3.17531,26.838032 0.61105,1.01092 15.58419,-1.853792 33.27363,-6.36602 43.9478,-11.210214 42.16263,-11.5229 42.16263,7.385131 0,8.642857 1.04517,15.714286 2.3226,15.714286 1.27743,0 6.09886,-4.019757 10.71429,-8.932794 10.43391,-11.106712 33.85474,-22.430829 46.4686,-22.467866 6.6162,-0.01943 11.98011,-2.50252 17.64668,-8.169097 21.50692,-21.5069139 73.61709,-17.901926 80.59969,5.575894 1.12066,3.768054 2.7594,10.415043 3.64166,14.771086 1.36171,6.723331 2.41817,7.484406 6.99157,5.036786 10.12568,-5.419092 23.30208,-20.792552 31.60963,-36.88023 l 8.30185,-16.0766362 0.13743,25.0000002 0.13743,25 h 17.14286 c 13.33334,0 17.14286,0.95238 17.14286,4.285714 0,3.333334 -3.80952,4.285714 -17.14286,4.285714 h -17.14286 l 0.042,53.571433 c 0.0294,37.28411 1.13526,55.74307 3.63763,60.71428 4.93663,9.80709 17.61546,11.03487 26.61783,2.5776 8.42626,-7.91605 9.00574,-3.23765 0.87871,7.09418 -6.68088,8.49338 -19.67537,16.06418 -27.46297,16.00039 -2.82803,-0.0231 -8.33083,-1.65565 -12.22843,-3.62774 z m -72.4502,-60.7363 12.39388,-7.26329 v -28.38028 c 0,-28.367141 -0.003,-28.379121 -6.51874,-25.901844 -19.12023,7.269491 -34.29686,16.095977 -40.64194,23.636671 -9.73032,11.563833 -9.78003,28.491073 -0.112,38.159053 8.99017,8.9902 19.23657,8.91666 34.87883,-0.25031 z m 52.8832,-0.32238 c 4.52434,-4.09448 5.22497,-9.45813 5.22497,-40 V 61.790397 h -11.42857 -11.42857 v 38.095238 c 0,20.952385 0.85714,38.952385 1.90477,39.999995 3.32257,3.32258 10.325,2.06533 15.7274,-2.82377 z"
         id="path3822"
         inkscape:connector-curvature="0"
         transform="matrix(0.26458333,0,0,0.26458333,14.637125,8.5084319)" />
      <path
         style="fill:#ffcc00;stroke-width:1.05457604"
         d="m 560.89967,199.80121 c 11.87986,-2.31256 13.73145,-8.33359 14.67829,-47.73121 0.49466,-20.58235 -0.202,-42.56532 -1.54813,-48.85103 -2.19033,-10.22771 -3.48569,-11.57868 -12.32784,-12.857144 -9.72579,-1.406227 -9.5664,-1.551464 10.19031,-9.285714 11.03885,-4.321429 21.00308,-7.857143 22.14274,-7.857143 1.13966,0 2.0918,26.035714 2.11587,57.857141 0.024,31.82143 1.09793,59.51882 2.38637,61.54977 1.28845,2.03094 6.09019,4.81329 10.67054,6.18299 5.86647,1.7543 -0.96128,2.44795 -23.10066,2.34686 -17.28572,-0.0789 -28.62909,-0.68847 -25.20749,-1.35452 z"
         id="path3824"
         inkscape:connector-curvature="0"
         transform="matrix(0.26458333,0,0,0.26458333,14.637125,8.5084319)" />
      <path
         style="fill:#ffcc00;stroke-width:1.05457604"
         d=""
         id="path3826"
         inkscape:connector-curvature="0"
         transform="matrix(0.26458333,0,0,0.26458333,14.637125,8.5084319)" />
      <path
         style="fill:#ffcc00;stroke-width:1.05457604"
         d="m 578.25001,30.143002 c -5.73974,-3.354608 -6.62347,-14.157699 -1.57143,-19.209747 9.69799,-9.6979839 25.85478,1.706811 19.42858,13.714285 -1.68201,3.142857 -3.55066,5.714286 -4.15257,5.714286 -0.6019,0 -2.80666,0.608273 -4.89947,1.351719 -2.09281,0.743445 -6.05511,0.0367 -8.80511,-1.570543 z"
         id="path3828"
         inkscape:connector-curvature="0"
         transform="matrix(0.26458333,0,0,0.26458333,14.637125,8.5084319)" />
      <path
         style="fill:#ffcc00;stroke-width:0.18642446"
         d="m 711.99805,23.390006 c -4.9576,-2.312485 -5.68287,-8.676716 -1.44047,-12.640166 1.96798,-1.8385792 6.48015,-2.0712435 8.82859,-0.455235 4.64904,3.199105 4.63787,9.197084 -0.0236,12.677389 -1.91149,1.427133 -4.84424,1.593597 -7.3645,0.418012 z m 6.77993,-2.274863 c 0.77942,-0.670848 1.24805,-1.389188 1.04141,-1.596311 -0.20664,-0.207124 -0.77485,-0.02606 -1.26269,0.402368 -3.87523,3.403275 -8.45077,-1.312979 -5.95538,-6.138533 1.2519,-2.4209 5.30764,-2.463019 6.06937,-0.06303 0.53847,1.696554 1.27187,1.184164 1.27187,-0.888587 v -1.927672 l -3.20608,0.05142 c -3.82671,0.06138 -5.63049,1.050426 -6.73448,3.692658 -2.205,5.277308 4.45575,10.18612 8.77598,6.467687 z"
         id="path3830"
         inkscape:connector-curvature="0"
         transform="matrix(0.26458333,0,0,0.26458333,14.637125,8.5084319)" />
      <path
         style="fill:#f9f9f9;stroke-width:0.09765813"
         id="path4278"
         d="m 169.24747,11.613543 c 0.40616,0.0073 0.81243,0.0041 1.21863,0.0026 0.30533,-0.02371 0.58225,0.0192 0.84858,0.169628 0.22428,0.158432 0.36627,0.396393 0.54444,0.599185 0.0882,0.117215 0.16699,0.24182 0.24397,0.36683 0,0 -1.71892,0.998889 -1.71892,0.998889 v 0 c -0.0716,-0.116408 -0.14355,-0.233404 -0.2264,-0.341965 -0.15488,-0.18767 -0.28586,-0.40514 -0.49975,-0.532267 -0.25298,-0.105993 -0.51816,-0.108075 -0.78971,-0.09943 -0.4086,-0.0016 -0.81726,-0.0046 -1.22582,0.0026 0,0 1.60498,-1.166088 1.60498,-1.166088 z"
         inkscape:connector-curvature="0" />
      <path
         style="fill:#f9f9f9;stroke-width:0.09765813"
         id="path4302"
         d="m 21.961094,47.655639 c -0.179538,-0.340474 -0.436958,-0.626335 -0.651112,-0.942872 -0.153051,-0.198157 -0.29126,-0.411982 -0.398365,-0.638643 -0.100695,-0.175445 -0.217602,-0.33364 -0.294089,-0.522301 -0.09372,-0.24099 -0.175798,-0.486984 -0.25091,-0.734438 -0.03351,-0.226256 -0.149332,-0.417714 -0.243868,-0.620395 -0.09231,-0.234696 -0.166571,-0.475507 -0.248412,-0.713888 -0.11493,-0.264375 -0.247579,-0.520827 -0.364776,-0.784694 -0.08626,-0.245369 -0.219633,-0.469527 -0.319276,-0.709139 -0.125634,-0.281381 -0.231717,-0.57037 -0.311457,-0.867955 -0.05774,-0.265699 -0.186205,-0.505298 -0.270249,-0.762058 -0.101016,-0.238154 -0.142184,-0.49263 -0.204919,-0.741399 -0.07768,-0.234784 -0.115773,-0.479272 -0.167305,-0.720461 -0.102503,-0.278622 -0.165031,-0.568557 -0.244086,-0.854183 -0.06066,-0.262342 -0.115631,-0.52401 -0.186279,-0.783905 -0.06668,-0.251047 -0.08267,-0.510593 -0.09293,-0.768906 -0.0075,-0.266956 -0.0062,-0.534056 -0.0059,-0.801086 5.29e-4,-0.267444 8.47e-4,-0.53489 0.001,-0.802336 1.47e-4,-0.267285 1.49e-4,-0.534571 1.56e-4,-0.801856 10e-7,-0.267268 -4e-6,-0.534536 -7e-6,-0.801803 -2e-6,-0.267269 -2e-6,-0.534539 -2e-6,-0.801808 -10e-7,-0.267269 0,-0.534539 0,-0.801808 -0.01875,-0.27836 0.02534,-0.550511 0.0697,-0.82383 0.02906,-0.239117 0.07311,-0.479871 0.16408,-0.703751 0.107669,-0.192506 0.119058,-0.413007 0.17342,-0.621489 0.079,-0.214177 0.08487,-0.443864 0.136135,-0.663849 0.06168,-0.221919 0.09297,-0.44768 0.162398,-0.667441 0.08075,-0.213228 0.18242,-0.416906 0.26801,-0.627861 0.08416,-0.250374 0.164259,-0.501913 0.24925,-0.752047 0.08332,-0.209343 0.201355,-0.40269 0.285331,-0.611027 0.08713,-0.196451 0.231166,-0.35641 0.339857,-0.540083 0.123107,-0.166151 0.244047,-0.340729 0.327077,-0.530846 0.112235,-0.16674 0.168934,-0.361465 0.288073,-0.523441 0.137416,-0.177048 0.241192,-0.372867 0.340479,-0.572885 0.110746,-0.18648 0.263383,-0.340516 0.383925,-0.520397 0.114603,-0.220241 0.266558,-0.40108 0.437413,-0.578901 0.12949,-0.18643 0.275052,-0.346736 0.448875,-0.490357 0.165855,-0.164091 0.362163,-0.293524 0.531575,-0.453705 0.184762,-0.183691 0.34485,-0.400354 0.561572,-0.547853 0.166049,-0.139958 0.330217,-0.288203 0.490937,-0.43629 0.191546,-0.127834 0.352712,-0.288027 0.512517,-0.45208 0.973037,-0.717705 1.801365,-1.022139 3.088811,-1.810265 0.902986,-0.552775 -3.645726,2.153249 -2.753485,1.583293 0.07553,-0.04825 7.417375,-4.286634 0.180191,-0.10758 0.978276,-0.563189 1.950808,-1.136477 2.934829,-1.689567 0.918167,-0.516076 -1.823271,1.055071 -2.737256,1.578517 -0.03244,0.01858 0.0599,-0.04503 0.09227,-0.06372 1.249368,-0.721485 1.953802,-1.561453 3.174191,-1.726577 0.193692,-0.02681 0.354497,-0.100105 0.554524,-0.127621 0,0 -2.63764,2.000198 -2.63764,2.000198 v 0 c -0.180738,0.05144 -0.359287,0.103372 -0.542802,0.141698 -0.06774,0.02861 -0.261433,0.134531 -0.197797,0.09768 7.22192,-4.181596 -0.20329,0.123115 -0.284088,0.174963 -0.885486,0.568217 1.821392,-1.053734 2.732088,-1.580601 -0.975331,0.565449 -1.952476,1.12778 -2.925992,1.696349 -0.914017,0.53382 3.674195,-2.103594 2.747497,-1.592102 -0.83985,0.463557 -6.712758,3.902654 -0.177653,0.09326 0.05875,-0.03425 -0.253513,0.128215 -0.165622,0.119138 -0.218188,0.09224 -0.331197,0.301716 -0.519148,0.437916 -0.299159,0.187948 0.121426,-0.08642 -0.172452,0.141036 -0.1157,0.08955 -0.253427,0.151616 -0.319945,0.294304 -0.195665,0.170739 0.02584,-0.0085 -0.1962,0.128334 -0.151009,0.09308 -0.259837,0.2535 -0.389145,0.371499 -0.05446,0.06612 -0.101335,0.13903 -0.162057,0.199453 -0.126178,0.125559 -0.05494,0.02122 -0.182237,0.131841 -0.196658,0.170904 0.0423,0.0125 -0.173068,0.144379 -0.01153,0.01174 -0.136743,0.140752 -0.153565,0.152127 -0.121251,0.08199 -0.07058,-0.0078 -0.172537,0.108527 -0.02615,0.02982 -0.04075,0.06842 -0.0661,0.09892 -0.02412,0.02902 -0.05431,0.05241 -0.08146,0.07861 -0.06198,0.1002 -0.133914,0.20214 -0.223011,0.281224 -0.09661,0.08575 -0.190131,0.137352 -0.224697,0.276829 -0.08115,0.124892 -0.145945,0.267948 -0.24778,0.37834 -0.02094,0.0227 -0.05244,0.03415 -0.07268,0.05749 -0.02307,0.02661 -0.03683,0.06004 -0.05525,0.09005 -0.161406,0.161591 -0.201499,0.389554 -0.340352,0.567272 -0.0173,0.02797 -0.03461,0.05595 -0.05192,0.08392 -0.02172,0.01924 -0.04797,0.03434 -0.06515,0.05772 -0.08144,0.110837 -0.120001,0.240637 -0.180577,0.363083 -0.102691,0.129854 -0.02169,0.01075 -0.09546,0.183256 -0.05786,0.135292 -0.165228,0.2441 -0.219366,0.38273 -0.09996,0.104434 -0.150152,0.237963 -0.242615,0.34881 -0.01883,0.02257 -0.04855,0.0348 -0.0661,0.05839 -0.02054,0.02762 -0.03072,0.06161 -0.04608,0.09242 -0.100581,0.127781 -0.02409,0.01387 -0.09512,0.183485 -0.05902,0.140928 -0.163949,0.257559 -0.206618,0.4078 -0.137914,0.216401 -0.165884,0.474432 -0.265833,0.7082 -0.05308,0.236877 -0.171887,0.433809 -0.252821,0.660165 -0.11354,0.196175 -0.143858,0.40354 -0.180963,0.624625 -0.01988,0.06452 -0.05257,0.125294 -0.06616,0.191422 -0.03207,0.156011 -0.0096,0.324995 -0.06718,0.477586 -0.02032,0.06409 -0.05383,0.124072 -0.06867,0.189644 -0.03483,0.153816 -0.01524,0.322279 -0.08598,0.469396 -0.02695,0.05895 -0.0688,0.110592 -0.09336,0.170579 -0.05827,0.142336 -0.09226,0.309356 -0.115076,0.459502 -0.03576,0.260623 -0.111666,0.514807 -0.09129,0.779788 -1e-6,0.267269 -1e-6,0.534539 0,0.801808 0,0.267268 0,0.534537 2e-6,0.801805 1e-6,0.26727 5e-6,0.53454 8e-6,0.80181 0,0.267343 6e-6,0.534685 -8.8e-5,0.802028 -1.23e-4,0.26754 -3.44e-4,0.535081 -8.73e-4,0.80262 -4.77e-4,0.263638 -0.0017,0.527298 0.002,0.79092 0.0052,0.234857 0.01052,0.471556 0.06128,0.701944 0.06495,0.261213 0.130671,0.519261 0.175203,0.785067 0.07906,0.290647 0.143268,0.585158 0.254026,0.8661 0.05591,0.234985 0.0984,0.471662 0.165866,0.703712 0.07108,0.243142 0.0862,0.50196 0.199826,0.733534 0.07453,0.266282 0.209803,0.510381 0.270212,0.781685 0.06557,0.286435 0.171216,0.558302 0.296501,0.823891 0.09281,0.239178 0.234675,0.456682 0.30996,0.703289 0.117788,0.273643 0.254716,0.537401 0.380533,0.806958 0.07812,0.228113 0.15669,0.455499 0.239829,0.681614 0.09701,0.218433 0.228619,0.423305 0.259696,0.666219 0.06687,0.239993 0.151871,0.475898 0.245656,0.706363 0.06469,0.184621 0.200342,0.328062 0.283173,0.504693 0.09311,0.213971 0.226966,0.410273 0.358565,0.601967 0.210917,0.326969 0.458367,0.630076 0.670666,0.956484 0,0 -2.86397,1.651815 -2.86397,1.651815 z"
         inkscape:connector-curvature="0" />
      <path
         style="fill:#f9f9f9;stroke-width:0.09765813"
         id="path4314"
         d="m 118.09667,21.85978 c -0.37614,-0.07781 -0.7362,-0.173076 -1.08625,-0.331174 -0.23437,-0.102806 -0.45693,-0.229005 -0.69298,-0.32961 -0.23033,-0.07204 -0.43135,-0.208693 -0.65708,-0.292768 -0.27368,-0.07155 -0.5557,-0.08724 -0.83378,-0.139278 -0.2989,-0.05902 -0.60317,-0.07319 -0.90685,-0.08244 -0.3107,-0.0063 -0.62151,-0.0061 -0.93227,-0.0057 -0.29211,7.41e-4 -0.58423,0.0014 -0.87634,0.0018 -0.25549,0.06851 -0.52917,0.06014 -0.77988,0.141364 -0.24598,0.08943 -0.50702,0.101743 -0.76561,0.115543 -0.28164,0.06271 -0.56631,0.104358 -0.85377,0.127112 -0.22675,0.07676 -0.46073,0.114526 -0.69835,0.134863 -0.24615,0.03818 -0.47031,0.13659 -0.70657,0.207389 -0.22661,0.03206 -0.43246,0.125649 -0.65717,0.167911 -0.21845,0.04782 -0.42672,0.119939 -0.65144,0.148908 -0.16889,0.04242 -0.30175,0.148576 -0.46209,0.210788 0,0 1.2464,-0.988102 1.2464,-0.988102 v 0 c 0.15507,-0.07897 0.30992,-0.155583 0.48561,-0.177118 0.21796,-0.04341 0.42635,-0.120849 0.64599,-0.156951 0.21664,-0.05788 0.42995,-0.126743 0.6481,-0.178952 0.2362,-0.08218 0.47641,-0.150418 0.72556,-0.181122 0.23573,-0.03148 0.46343,-0.09628 0.6982,-0.131534 0.28686,-0.0306 0.569,-0.08836 0.85515,-0.123273 0.25591,-0.02118 0.50647,-0.06213 0.75209,-0.139232 0.26535,-0.04476 0.53236,-0.09027 0.80067,-0.109807 0.29134,-5e-5 0.58269,-1.43e-4 0.87403,-3.6e-5 0.31199,2.11e-4 0.6241,-0.0015 0.93593,0.0105 0.30874,0.01392 0.61699,0.03707 0.92023,0.100329 0.28613,0.04988 0.58219,0.05652 0.85531,0.163767 0.22161,0.09565 0.43139,0.217653 0.66009,0.297198 0.23225,0.106498 0.45604,0.228857 0.68917,0.332855 0.33908,0.150043 0.69739,0.232178 1.06328,0.290022 0,0 -1.29538,0.916758 -1.29538,0.916758 z"
         inkscape:connector-curvature="0" />
      <path
         style="fill:#f9f9f9;stroke-width:0.09765813"
         id="path4360"
         d="m 196.20462,16.069361 c 0.32683,-0.05582 0.66769,-0.07398 0.95908,0.102174 0.19188,0.13696 0.30401,0.345047 0.43047,0.537711 0.12213,0.167624 0.2376,0.340146 0.33814,0.521682 0.0916,0.211175 0.21426,0.406668 0.29994,0.620155 0.214,0.594025 0.34889,1.057102 0.39543,1.624435 0,0 -0.51973,-1.216549 -0.51973,-1.216549 v 0 c -0.0645,-0.459708 -0.27772,-1.155826 0.27159,0.907863 -0.0632,-0.223272 -0.18781,-0.411692 -0.28484,-0.620532 -0.0754,-0.190386 -0.19637,-0.365611 -0.32334,-0.524822 -0.11202,-0.190232 -0.22503,-0.390098 -0.38293,-0.545453 -0.22224,-0.219514 -0.55816,-0.178739 -0.84376,-0.128987 0,0 -0.34005,-1.277677 -0.34005,-1.277677 z"
         inkscape:connector-curvature="0" />
      <path
         style="fill:#f9f9f9;stroke-width:0.09765813"
         id="path4416"
         d="m 21.415333,46.686468 c 0.164492,0.08947 0.325204,0.184721 0.481366,0.287983 0.09305,0.08226 0.206616,0.133003 0.310877,0.197964 0.08378,0.0632 0.174495,0.108108 0.267377,0.155376 0.09453,0.04053 0.192021,0.07594 0.28995,0.108162 0.103913,0.0164 0.189067,0.07559 0.281098,0.120668 0.114226,0.04697 0.229798,0.092 0.342837,0.142354 0.122608,0.04621 0.238555,0.107133 0.363776,0.146135 0.10612,0.04622 0.217687,0.0788 0.320419,0.132458 0.0971,0.04665 0.197293,0.08948 0.299197,0.124965 0.10817,0.04963 0.214315,0.101309 0.319321,0.157436 0.101019,0.0697 0.20914,0.12877 0.324367,0.171071 0.111706,0.02344 0.206879,0.08457 0.308466,0.132115 0.103003,0.04788 0.206604,0.09635 0.312958,0.136596 0.107967,0.02397 0.211197,0.06378 0.319266,0.08728 0.116292,0.01027 0.229126,0.03249 0.342825,0.05795 0.111473,0.01238 0.216348,0.05187 0.325517,0.07501 0.118521,0.01744 0.236972,0.02104 0.354099,0.04735 0.09941,0.02231 0.20102,0.03804 0.303119,0.03713 -0.40904,0.346157 -0.319501,-0.240366 0.717639,1.058291 0.0092,0.01148 -0.0235,-0.01773 -0.03602,-0.02543 -0.08066,-0.04967 -0.0073,0.0049 -0.07851,-0.0513 -0.418093,-0.287438 -0.838812,-0.93971 -1.052257,-1.196803 -0.282777,-0.363609 -0.657901,-0.791512 0.718196,0.852699 0.02338,0.02793 -0.05122,-0.05205 -0.07972,-0.07474 -0.0745,-0.07371 -0.145112,-0.148384 -0.228624,-0.212881 -0.09078,-0.06065 -0.177491,-0.126672 -0.266173,-0.190254 -0.06804,-0.06885 -0.142861,-0.126728 -0.218342,-0.18637 -0.07909,-0.05282 -0.157156,-0.111183 -0.222544,-0.180684 -0.08596,-0.06662 -0.155691,-0.150101 -0.235331,-0.22334 -0.380816,-0.3829 -0.69196,-0.806548 -1.044286,-1.23271 -0.28257,-0.354811 -0.623364,-0.751943 0.736247,0.877758 0.01053,0.01262 -0.01894,-0.02704 -0.03049,-0.03872 -0.02325,-0.02349 -0.05069,-0.04247 -0.07487,-0.06501 -0.08293,-0.05901 -0.155499,-0.130003 -0.235287,-0.193281 -0.07731,-0.07074 -0.145168,-0.151116 -0.222855,-0.221234 -0.08311,-0.08241 -0.158165,-0.172579 -0.23678,-0.259595 -0.378225,-0.354666 -0.140195,-0.127778 -0.93302,-1.096479 -0.01399,-0.01709 -0.01524,-0.04165 -0.02591,-0.061 -0.02741,-0.04967 -0.06032,-0.100197 -0.09096,-0.148375 -0.03233,-0.05354 -0.03382,-0.116909 -0.07605,-0.165116 -0.01174,-0.01339 -0.05246,-0.04785 -0.04113,-0.03412 0.779288,0.944161 1.135241,1.23344 0.77049,0.932921 -0.07634,-0.08019 -0.174787,-0.103709 -0.280441,-0.117943 -0.118671,-0.01386 -0.221573,0.03576 -0.325106,0.08569 -0.08863,0.05958 -0.186877,0.103449 -0.271976,0.168217 -0.07919,0.05598 -0.146067,0.12636 -0.220516,0.188322 -0.09634,0.08364 -0.176302,0.184116 -0.268226,0.272683 -0.07407,0.07092 -0.137439,0.148076 -0.192197,0.234682 -0.0056,0.01318 -0.01214,0.02596 -0.01675,0.0395 -0.0129,0.03786 -0.02301,0.08101 0.02236,0.101536 0.01344,0.0061 0.05244,0.02119 0.04315,0.0097 -0.267406,-0.329782 -0.548865,-0.647917 -0.823298,-0.971875 0.08614,0.06335 0.204935,0.06297 0.308046,0.05988 0.111925,-0.0109 0.215468,-0.04773 0.315157,-0.09768 0.09509,-0.04518 0.188549,-0.09399 0.280909,-0.144637 0.100863,-0.04244 0.20201,-0.08624 0.307181,-0.11719 0.09633,-0.02775 0.178159,-0.08535 0.270999,-0.121766 0.107902,-0.03241 0.212516,-0.07135 0.323267,-0.09337 0.140436,-0.03675 0.249694,0.01029 0.369436,0.07806 0.452398,0.347234 0.863494,0.796153 1.042642,1.339144 0.03128,0.134988 0.0441,0.270991 0.07459,0.406022 0.04021,0.130569 0.06118,0.269258 0.106086,0.398457 0.02186,0.131693 0.117337,0.20429 0.188456,0.305128 0.289642,0.367628 0.172405,0.217844 -0.758444,-0.904822 -0.01428,-0.01722 0.03059,0.03266 0.04638,0.0485 0.05579,0.05596 0.111682,0.111927 0.168346,0.167016 0.08077,0.08729 0.173246,0.170527 0.286422,0.211725 0.08315,0.02204 0.110812,-0.02712 0.125484,-0.09828 0.02309,-0.11897 0.0114,-0.232352 -0.01237,-0.349155 -0.211025,-0.42269 -0.663951,-0.847018 0.715071,0.824648 0.02067,0.02506 -0.04551,-0.04709 -0.07264,-0.06497 -0.08498,-0.07103 -0.18745,-0.09218 -0.294306,-0.105014 -0.106753,-0.01058 -0.185989,0.028 -0.253224,0.108109 -0.04806,0.08863 -0.09763,0.209788 -0.02668,0.296492 0.429078,0.19258 0.0513,0.0306 -0.77228,-0.950618 -0.0099,-0.01175 0.0196,0.02405 0.03195,0.03314 0.0084,0.0062 -0.0074,-0.01953 -0.01042,-0.02949 -0.0451,-0.0553 -0.07386,-0.121203 -0.118474,-0.176974 -0.281019,-0.351341 -0.748957,-0.892551 0.67286,0.810643 -0.08673,-0.105196 -0.191945,-0.189918 -0.301963,-0.269317 -0.06826,-0.03831 -0.170189,-0.102115 -0.247858,-0.05271 -0.04895,0.08565 -0.02555,0.165359 0.0496,0.222602 0.0679,0.07359 -0.02011,0.142118 -0.09202,0.16741 -0.04062,0.01429 -0.06667,-0.0011 -0.103022,-0.01352 -0.126551,-0.04151 -0.247887,-0.0962 -0.370933,-0.146695 -0.116342,-0.04033 -0.235678,-0.07449 -0.347457,-0.126527 -0.44157,-0.326323 -0.875655,-0.749337 -1.06544,-1.269894 -0.03743,-0.129992 -0.03992,-0.266025 -0.04242,-0.400253 0.0011,-0.177073 0.0016,-0.354148 0.0031,-0.53122 -5.1e-5,-0.199136 0.0012,-0.398262 5.3e-4,-0.597395 0.01277,-0.202597 -0.01045,-0.401569 -0.03562,-0.601972 -0.02258,-0.181205 -0.02023,-0.295929 0.170054,-0.355926 0.0336,0.009 0.05903,0.01281 0.08868,0.03314 0.0267,0.01831 0.05175,0.03979 0.07251,0.06465 1.408736,1.686992 0.551387,0.682866 0.897612,1.088181 0.05181,0.08518 0.07985,0.194162 0.139114,0.273151 0.01544,0.05622 0.0561,0.08581 0.09292,0.125555 0.01266,0.01365 0.04539,0.05906 0.0334,0.0448 -0.846264,-1.005792 -1.098429,-1.258713 -0.767796,-0.924327 0.01141,0.02944 0.0793,0.06448 0.07793,0.101843 -8.2e-4,0.02252 -0.03097,0.04317 -0.03941,0.01214 -0.0465,-0.0861 -0.09843,-0.170995 -0.152196,-0.254214 -0.052,-0.07482 -0.07456,-0.174649 -0.134497,-0.244015 -0.04168,-0.04823 -0.02505,0.0019 -0.03587,-0.04456 0.340473,0.310171 0.680945,0.620342 1.021417,0.930511 0.0097,0.01752 0.01726,0.03633 0.02899,0.05253 0.06138,0.08473 0.02144,-0.0016 0.07246,0.09252 0.0096,0.01775 0.01641,0.03694 0.02462,0.0554 0.01022,0.01781 0.02044,0.03561 0.03066,0.05342 0.0532,0.03704 0.06872,0.0971 0.100771,0.148338 0.03208,0.0513 0.06017,0.08456 0.08159,0.143182 0.0292,0.05982 0.08539,0.101425 0.114592,0.160441 0.04101,0.08289 -0.0078,0.01818 0.04954,0.08457 -1.4334,-1.863921 -1.011023,-1.104365 -0.637093,-0.810461 0.290518,0.347636 0.580326,0.695865 0.871552,1.042908 0.02051,0.02445 0.07669,0.10192 0.05612,0.07754 -0.271607,-0.321836 -1.079884,-1.292815 -0.807334,-0.971777 0.865045,1.018942 0.707518,0.622564 0.887202,1.09262 0.0028,0.05556 0.04148,0.09123 0.05891,0.141711 0.0059,0.01712 0.0069,0.03594 0.01445,0.05241 0.0136,0.02964 0.03503,0.05522 0.04877,0.0848 0.02925,0.09528 0.09724,0.171582 0.157465,0.250044 0.07109,0.102248 0.09035,0.23182 0.185077,0.31487 0.156274,0.19903 -0.08707,-0.11671 0.05857,0.09228 0.01922,0.02758 0.08267,0.106031 0.06101,0.08031 -0.270939,-0.321757 -1.084837,-1.285928 -0.80644,-0.970603 0.299681,0.339431 0.580213,0.695304 0.870319,1.042953 -1.607573,-1.588193 -0.947606,-1.148837 -0.623296,-0.774277 0.07732,0.07626 0.153049,0.154152 0.232927,0.227915 0.07104,0.08845 0.157238,0.162409 0.233347,0.24593 0.07567,0.06177 0.131641,0.144685 0.213994,0.197731 0.370581,0.306581 1.358764,0.977112 0.77911,1.224828 -0.01422,-0.0038 -0.02958,-0.0047 -0.04265,-0.01146 -0.01517,-0.0079 -0.02924,-0.01857 -0.04038,-0.03154 -0.29685,-0.345278 -0.593009,-0.691224 -0.882901,-1.042365 -0.01334,-0.01617 -0.01457,-0.03953 -0.02519,-0.05759 -0.0099,-0.01691 -0.02399,-0.03102 -0.03598,-0.04653 -0.0095,-0.01754 -0.01906,-0.03509 -0.02859,-0.05264 -0.01268,-0.01336 -0.0267,-0.02558 -0.03803,-0.04011 -0.06051,-0.07757 -0.0011,-0.01394 -0.05097,-0.09884 -0.0064,-0.01095 -0.150929,-0.176141 -0.06956,-0.07828 0.26552,0.319321 0.532895,0.637096 0.799342,0.955644 -0.09806,-0.110517 -0.214307,-0.203875 -0.328208,-0.297657 -0.108364,-0.07419 -0.218736,-0.144856 -0.326592,-0.219794 -0.156625,-0.0985 -0.298977,-0.215085 -0.437721,-0.337082 -0.169765,-0.149143 -0.327113,-0.31042 -0.478112,-0.478195 -0.362556,-0.396134 -0.754969,-0.780248 -1.031181,-1.241068 -0.04516,-0.08687 -0.0213,-0.04425 -0.07153,-0.127854 -0.01429,-0.08022 -0.07128,-0.136665 -0.109206,-0.204433 -0.04212,-0.07525 -0.07764,-0.157168 -0.117731,-0.233868 -0.06552,-0.154742 -0.173845,-0.284924 -0.222862,-0.446601 -0.05862,-0.126997 -0.112011,-0.258495 -0.148266,-0.393885 -0.05656,-0.129257 0.05365,-0.221768 0.180221,-0.178334 0.109304,0.06333 0.18722,0.164184 0.276087,0.251304 0.370354,0.393901 0.721841,0.810971 1.028398,1.254416 0.0753,0.100491 0.12429,0.2155 0.193062,0.320997 0.05506,0.125056 0.144052,0.229373 0.216856,0.343255 0.04912,0.111413 0.132846,0.202917 0.193605,0.308057 -0.01722,-0.0408 0.103234,0.130357 0.07646,0.09855 -0.268471,-0.318876 -1.074762,-1.274622 -0.799783,-0.96134 0.34015,0.387533 0.628229,0.763783 0.952118,1.140262 -1.574679,-1.598922 -0.922237,-1.090232 -0.574232,-0.736828 0.07457,0.0737 0.154247,0.143404 0.222995,0.222642 0.01234,0.0109 0.02647,0.02005 0.03703,0.03269 0.290741,0.347599 0.577114,0.698834 0.866514,1.047552 0.01007,0.01212 0.04193,0.04706 0.03185,0.03494 -0.268013,-0.321945 -0.536913,-0.643149 -0.805665,-0.964477 -0.02328,-0.02783 0.04837,0.05434 0.07565,0.07825 0.08645,0.08886 0.191184,0.156802 0.287392,0.234108 0.09109,0.05862 0.179776,0.114702 0.250139,0.198467 0.372427,0.377102 0.696688,0.817343 1.02919,1.220703 0.132906,0.145917 -0.07075,-0.08333 0.05502,0.07828 0.0096,0.01233 0.0248,0.01937 0.03486,0.03131 0.01042,0.01238 0.03646,0.05333 0.02603,0.04096 -0.271606,-0.321992 -1.097655,-1.277744 -0.809826,-0.970166 0.309268,0.330488 0.582827,0.692669 0.874241,1.039 0.285696,0.35831 0.231258,0.289333 -0.773665,-0.920059 -0.01193,-0.01434 0.02726,0.02553 0.04018,0.03899 0.03636,0.03794 0.07397,0.07412 0.109372,0.112991 0.369385,0.387503 1.978134,2.376786 0.129533,0.148627 -0.05556,-0.06697 0.0499,0.04719 0.06746,0.06605 0.07103,0.06234 0.146387,0.121396 0.21018,0.191429 0.06814,0.06509 0.140338,0.127494 0.202112,0.198948 0.03356,0.05506 0.111433,0.06845 0.151632,0.114525 0.505658,0.579501 1.777975,2.10004 0.07034,0.06646 2.344145,2.809346 0.03962,0.04945 0.06027,0.07347 0.295053,0.343326 0.586556,0.689806 0.871288,1.041739 0.0096,0.01191 0.0099,0.03002 0.0081,0.04524 -0.0022,0.01905 -0.03097,0.07444 -0.03989,0.09265 -0.07568,0.104976 -0.194984,0.129714 -0.315718,0.145574 -0.138637,0.01209 -0.27786,0.0186 -0.415292,-0.0053 -0.13533,-0.04092 -0.259916,-0.111469 -0.369598,-0.199909 -0.08457,-0.07507 -0.158194,-0.160766 -0.261365,-0.209912 -0.09169,-0.06212 -0.194468,-0.08613 -0.302548,-0.09948 -0.126843,-0.0077 -0.251829,-0.0074 -0.376166,-0.03562 -0.114317,-0.03513 -0.218071,-0.09517 -0.324313,-0.149022 -0.105862,-0.05004 -0.221768,-0.07094 -0.324685,-0.127584 -0.09171,-0.04876 -0.188533,-0.08971 -0.285981,-0.126241 -0.125752,-0.04769 -0.249207,-0.09713 -0.370054,-0.156419 -0.09953,-0.05557 -0.195069,-0.120063 -0.299003,-0.167108 -0.09012,-0.05036 -0.173416,-0.108805 -0.263661,-0.159237 -0.100729,-0.04852 -0.207161,-0.08535 -0.306724,-0.136176 -0.09197,-0.04879 -0.194693,-0.06847 -0.284209,-0.122317 -0.09602,-0.05466 -0.195683,-0.101663 -0.291738,-0.156469 -0.09272,-0.04301 -0.184226,-0.09342 -0.260091,-0.16251 -0.07943,-0.06244 -0.166904,-0.11068 -0.240041,-0.181639 -0.08381,-0.0802 -0.176301,-0.14869 -0.268259,-0.219019 -0.569594,-0.658159 -1.769972,-2.099543 -0.106658,-0.116039 0.01017,0.01214 -0.01951,-0.02514 -0.03114,-0.03586 -0.02574,-0.02376 -0.05546,-0.04286 -0.08225,-0.06546 -0.349834,-0.3403 -0.659383,-0.783268 -0.955639,-1.1244 -0.274589,-0.316183 1.087717,1.273614 0.807105,0.962766 -0.05662,-0.06272 -2.179421,-2.590163 -0.0671,-0.07629 -0.349207,-0.337608 -0.655501,-0.726397 -0.932365,-1.121304 -0.03059,-0.04363 -0.03672,-0.08969 -0.07006,-0.132098 -0.04581,-0.0992 -0.0616,-0.205545 -0.119546,-0.299056 -0.07357,-0.142582 -0.05889,-0.222875 0.07036,-0.318762 0.132758,-0.07518 0.25485,-0.02997 0.376616,0.03898 0.429593,0.334926 0.79416,0.765818 1.066759,1.237732 0.04395,0.120769 0.13938,0.208722 0.20155,0.320087 0.0125,0.0191 0.02318,0.03956 0.03751,0.05735 0.04134,0.05133 0.08919,0.09678 0.127028,0.15171 0.07677,0.111432 -0.01027,0.0093 0.07649,0.104785 0.260235,0.401217 0.04936,0.07166 -0.767648,-0.910955 -0.01255,-0.01511 0.02493,0.03036 0.03815,0.04487 0.04663,0.05119 0.09804,0.09809 0.148539,0.145368 0.08991,0.08706 0.197925,0.149468 0.294665,0.227626 0.101642,0.06873 0.207781,0.130609 0.309147,0.200194 0.146021,0.0876 0.287664,0.182256 0.438866,0.260866 0.142399,0.07683 0.281012,0.160343 0.417447,0.247237 0.164504,0.102392 0.332936,0.198652 0.501308,0.294611 0.136611,0.07712 0.276817,0.147442 0.416135,0.219438 0.112853,0.0478 0.220255,0.107526 0.338188,0.142049 0.121312,0.02914 0.246689,0.02755 0.370513,0.03339 0.11113,0.01648 0.2207,0.03794 0.326845,0.07473 0.126629,0.03963 0.247873,0.0949 0.367159,0.152593 0.108443,0.05648 0.210268,0.117012 0.329734,0.146986 0.116755,0.02172 0.229545,0.06073 0.341305,0.100193 0.08996,0.05399 0.175258,0.113614 0.265393,0.168619 0.08184,0.05793 0.170173,0.09839 0.25974,0.142279 0.08613,0.03152 0.154633,0.09128 0.22511,0.147643 0.05639,0.01323 -0.103878,0.0767 -0.111842,0.0749 -0.02716,-0.0062 -0.01486,-0.05402 -0.02711,-0.07903 -0.0069,-0.01397 -0.01894,-0.02474 -0.0284,-0.03709 0.06101,0.04821 -0.141134,-0.193389 -0.08456,-0.125947 1.66519,1.98505 0.443331,0.563121 -0.100741,-0.115787 0.27111,0.323225 0.540195,0.64816 0.813329,0.969677 0.0095,0.01114 -0.01644,-0.0298 -0.01068,-0.03332 0.04663,-0.02849 0.09097,-0.06608 0.144374,-0.0777 0.0095,-0.0021 0.03093,0.05577 0.04563,0.09205 0.03871,0.126188 0.06333,0.253127 0.0069,0.375949 -0.08478,0.117504 -0.217081,0.142031 -0.352255,0.155572 -0.134553,0.0085 -0.2695,0.0062 -0.404238,0.0053 -0.124251,0.0019 -0.248509,0.0035 -0.365337,-0.04326 -0.09095,-0.04118 -0.182429,-0.08296 -0.26833,-0.133999 -0.08935,-0.04218 -0.173668,-0.08897 -0.253821,-0.146862 -0.08251,-0.05829 -0.174181,-0.09308 -0.265348,-0.134152 -0.09706,-0.03699 -0.195071,-0.07245 -0.294009,-0.104695 -0.105198,-0.01596 -0.19058,-0.07807 -0.284834,-0.12073 -0.103202,-0.06461 -0.209682,-0.12351 -0.311713,-0.190026 -0.09918,-0.06595 -0.19942,-0.129437 -0.300905,-0.191826 -0.102548,-0.04344 -0.188329,-0.115779 -0.275174,-0.183753 -0.08803,-0.06581 -0.191183,-0.106476 -0.281093,-0.168693 -0.105939,-0.07981 -0.223533,-0.141681 -0.333119,-0.215746 -0.107299,-0.07506 -0.221937,-0.138213 -0.332541,-0.207717 -0.42654,-0.248073 -0.849108,-0.956016 -1.029543,-1.151636 -1.042357,-1.130077 1.160601,1.362213 0.760782,0.909744 -0.01462,-0.01257 -0.03129,-0.0231 -0.04385,-0.03772 -0.296222,-0.34504 -0.568334,-0.711549 -0.882045,-1.04077 -0.288894,-0.303175 1.070485,1.28837 0.807458,0.962499 -0.28491,-0.352986 -0.582972,-0.695156 -0.87312,-1.04385 -0.02493,-0.02996 -0.047,-0.06221 -0.07168,-0.09237 -0.09343,-0.0998 -0.162071,-0.212456 -0.230499,-0.329579 -0.02364,-0.05975 -0.06022,-0.117382 -0.100212,-0.167838 -0.01446,-0.01826 -0.06315,-0.06842 -0.04828,-0.0505 0.261922,0.315851 1.061438,1.251714 0.789556,0.944395 -0.304307,-0.343969 -0.591243,-0.702923 -0.886865,-1.054385 -0.05797,-0.05176 -0.08038,-0.124243 -0.116816,-0.189209 -0.03283,-0.05854 -0.06426,-0.103484 -0.08727,-0.167759 -0.03079,-0.109445 -0.08594,-0.215069 -0.143406,-0.313801 -0.03924,-0.129249 -0.109313,-0.236607 -0.187907,-0.344827 -0.06396,-0.145237 -0.15517,-0.271168 -0.245977,-0.40132 -0.109088,-0.15331 -0.215829,-0.309112 -0.315527,-0.46845 -0.03922,-0.08527 -0.02264,-0.04196 -0.05006,-0.129802 0,0 0.971082,0.897644 0.971082,0.897644 v 0 c 0.03963,0.07384 0.01807,0.03706 0.06498,0.110154 0.104922,0.153636 0.201026,0.31336 0.313365,0.461992 0.09049,0.13226 0.165242,0.272849 0.250207,0.408318 0.06942,0.114425 0.120315,0.235299 0.179057,0.355317 0.04961,0.105426 0.09826,0.210709 0.139384,0.319601 0.06659,0.115541 0.13334,0.231 0.225095,0.329065 -0.264485,-0.31395 -1.058868,-1.255017 -0.793454,-0.941851 0.397833,0.469411 0.758457,0.793504 1.027297,1.286463 0.06991,0.113437 0.161356,0.2115 0.24191,0.317396 0.02404,0.03177 0.09845,0.125273 0.07274,0.09484 -0.27072,-0.320434 -1.086164,-1.278887 -0.810446,-0.962744 2.980492,3.41749 -0.607803,-0.610513 0.106,0.125574 0.42606,0.288731 0.133839,0.08378 0.935865,1.082254 0.259519,0.323088 -0.536926,-0.631391 -0.804176,-0.948111 -0.0249,-0.0295 0.09852,0.107654 0.07901,0.08466 0.01218,0.01196 0.02436,0.02392 0.03654,0.03587 0.117418,0.06327 0.227317,0.13765 0.341884,0.205804 0.10918,0.07372 0.221132,0.140369 0.330906,0.213048 0.01595,0.01037 0.03191,0.02077 0.04786,0.03114 0.01312,0.01236 0.02466,0.02666 0.03937,0.0371 0.05889,0.04176 0.14016,0.04369 0.187786,0.103827 0.100989,0.04598 0.175597,0.125958 0.264933,0.190458 0.059,0.02175 0.09616,0.05072 0.148762,0.08217 0.0562,0.0336 0.120958,0.05236 0.164792,0.10555 0.105263,0.05884 0.202606,0.130508 0.310162,0.185317 0.06522,0.05456 0.176886,0.09923 0.251761,0.144483 0.109041,0.02019 0.203244,0.06932 0.311061,0.09204 0.03051,0.01249 0.05785,0.0321 0.08867,0.04382 0.06482,0.02466 0.137781,0.02458 0.186072,0.08374 0.09419,0.03712 0.156986,0.117422 0.255018,0.146042 0.0882,0.04496 0.170247,0.1 0.260525,0.139472 0.0281,0.01482 0.05226,0.0368 0.08126,0.04977 0.07538,0.0337 0.159882,0.02828 0.239952,0.02851 0.131718,7.94e-4 0.263473,0.003 0.395178,6.9e-5 0.06947,-0.003 0.188024,0.01 0.229609,-0.05711 0.0072,-0.104495 -0.02937,-0.209855 -0.08069,-0.299509 -0.0099,-0.01429 -0.01969,-0.02864 -0.02969,-0.04286 -0.0093,-0.01328 -0.03409,-0.02445 -0.0283,-0.03962 0.03462,-0.09065 0.123234,-0.190084 0.167424,-0.140237 0.29968,0.338043 0.584563,0.68892 0.876844,1.033378 0.362979,0.463653 -1.537311,-1.964711 -0.775529,-0.921499 0.327631,0.44867 0.715838,0.725075 0.945601,1.18222 0.0083,0.02347 0.0572,0.101565 0.05437,0.125438 -0.0062,0.05206 -0.07061,0.13883 -0.126965,0.127842 -0.10107,-0.0168 -0.09061,-0.03232 -0.159228,-0.08972 -0.01253,-0.01048 -0.02818,-0.01651 -0.04226,-0.02479 -0.01106,-0.0104 -0.02212,-0.0208 -0.03317,-0.0312 -0.03016,-0.01286 -0.05693,-0.03293 -0.08726,-0.04537 -0.06434,-0.02641 -0.135933,-0.02842 -0.180239,-0.0919 -0.01564,-0.0076 -0.03129,-0.01516 -0.04693,-0.02275 -0.01322,-0.0097 -0.02508,-0.02162 -0.03967,-0.02911 -0.06633,-0.03402 -0.136688,-0.0476 -0.175234,-0.120996 -0.09426,-0.06372 -0.207211,-0.07881 -0.311348,-0.121426 -0.129635,-0.01609 -0.254793,-0.04446 -0.358023,-0.130161 -0.117886,-0.05111 -0.231018,-0.112022 -0.350553,-0.159198 -0.05051,-0.0136 -0.09573,-0.03943 -0.144713,-0.05388 -0.05352,-0.0158 -0.113915,-0.01087 -0.166296,-0.03321 -0.122159,-0.03323 -0.253401,-0.0043 -0.378117,-0.02839 -0.142468,-0.02193 -0.236785,-0.06908 -0.365806,-0.127217 -0.144402,-0.06544 -0.283537,-0.142743 -0.422702,-0.218446 -0.17457,-0.08996 -0.336804,-0.201342 -0.512569,-0.289197 -0.130541,-0.09225 -0.269029,-0.166645 -0.40389,-0.251672 -0.150318,-0.08067 -0.303284,-0.157144 -0.440881,-0.258421 -0.113889,-0.05115 -0.205978,-0.139337 -0.320292,-0.189645 -0.05063,-0.03237 -0.08975,-0.07701 -0.139989,-0.108831 -0.05711,-0.03617 -0.121161,-0.05841 -0.162471,-0.116867 -0.4624,-0.324646 -0.731982,-0.876459 -1.116389,-1.269259 -0.07438,-0.110059 -0.165931,-0.207444 -0.231854,-0.323366 -0.07446,-0.103531 -0.142143,-0.209555 -0.203012,-0.321463 -0.272224,-0.392507 -0.02382,-0.03128 0.779348,0.917186 0.011,0.01299 -0.01848,-0.02886 -0.03035,-0.04106 -0.02516,-0.02588 -0.0506,-0.05149 -0.07649,-0.07664 -0.0139,-0.01349 -0.03084,-0.02344 -0.04626,-0.03518 -0.05301,-0.05773 -0.153325,-0.153342 -0.238306,-0.133911 -0.04519,0.02151 0.05678,0.154244 0.0627,0.187283 0.03558,0.100211 0.06895,0.202258 0.130312,0.290269 0.02191,0.04712 0.04902,0.08058 0.07832,0.122822 0.0094,0.0136 0.03673,0.05485 0.02603,0.04224 -0.765502,-0.90284 -1.05748,-1.311296 -0.78136,-0.926994 2.753993,3.237434 -0.306459,-0.357648 0.07007,0.07513 0.298033,0.342559 0.580774,0.698257 0.87993,1.039837 0.275457,0.31452 -0.540866,-0.637715 -0.808826,-0.958647 -0.01202,-0.01439 0.02892,0.02424 0.04078,0.03877 0.01157,0.01418 0.0193,0.03108 0.02895,0.04662 0.0036,0.0036 0.06551,0.0667 0.07172,0.0711 0.01488,0.01056 0.03652,0.01156 0.04852,0.02529 0.641154,0.734097 1.643606,1.959298 0.068,0.07866 -0.01181,-0.0141 0.02676,0.02524 0.04014,0.03787 0.06562,0.09967 0.179927,0.135004 0.253914,0.227537 0.0824,0.05792 0.138752,0.147439 0.237678,0.181298 0.08074,0.05717 0.1437,0.135905 0.234288,0.181281 0.106081,0.03998 0.193038,0.112943 0.301752,0.147953 0.01412,0.0082 0.02823,0.0164 0.04235,0.02463 0.01126,0.01024 0.02081,0.02278 0.03379,0.03076 0.06159,0.03783 0.132255,0.05112 0.200138,0.07299 0.100989,0.0483 0.198968,0.103751 0.305896,0.138285 0.06182,0.025 0.141605,0.05271 0.193857,0.09497 0.01204,0.0097 0.01969,0.02437 0.03224,0.03346 0.01398,0.01013 0.03082,0.01558 0.04622,0.02339 0.08595,0.06481 0.212167,0.105925 0.302658,0.168825 0.105268,0.079 0.227477,0.12773 0.352966,0.16496 0.09626,0.04664 0.197196,0.08036 0.296965,0.117607 0.02931,0.01651 0.0543,0.04005 0.08367,0.05646 0.07258,0.04056 0.15509,0.05411 0.233407,0.07887 0.109013,0.04462 0.209533,0.103227 0.313344,0.155477 0.111252,0.05543 0.227301,0.05645 0.349794,0.05472 0.118242,0.0061 0.24025,0.01188 0.347979,0.0662 0.04979,0.03273 0.104356,0.04256 0.154514,0.07446 0.07018,0.04462 0.02539,0.02519 0.08491,0.0813 0.0154,0.01453 0.03356,0.02582 0.05034,0.03874 0.09081,0.100135 0.196838,0.174242 0.317463,0.235591 0.120094,0.05128 0.244768,0.03916 0.373129,0.03271 0.04611,-0.0033 0.168485,0.0047 0.188718,-0.04677 -0.0043,-0.01535 -0.108484,-0.117824 -0.04993,-0.0477 0.269807,0.323141 1.077464,1.293955 0.812802,0.966586 -0.07435,-0.09196 -2.157968,-2.569344 -0.05976,-0.07377 -0.29182,-0.345827 -0.615747,-0.666933 -0.875457,-1.037479 -0.241867,-0.345088 0.548108,0.640249 0.821694,0.960773 0.0099,0.01162 -0.01863,-0.02469 -0.03069,-0.03406 -0.03815,-0.0297 -0.08293,-0.0568 -0.126887,-0.07672 -0.07566,-0.05592 -0.135066,-0.133294 -0.200257,-0.200096 -0.07627,-0.05546 -0.135506,-0.131953 -0.205746,-0.194315 -0.05152,-0.03264 -0.03525,-0.01693 -0.07395,-0.06213 -0.294606,-0.344136 -0.590117,-0.687502 -0.88304,-1.033069 -0.01073,-0.01267 -0.03847,-0.05402 -0.02772,-0.04137 0.749407,0.881364 1.07173,1.300578 0.781805,0.92456 -0.05655,-0.04257 -0.108897,-0.09575 -0.154719,-0.149624 -0.947666,-1.114169 -0.593349,-0.685297 -0.919035,-1.079918 0.271356,0.321876 1.079,1.29281 0.814066,0.965628 -0.312326,-0.385712 -0.703269,-0.765976 -0.984714,-1.195779 0.270632,0.322681 0.540284,0.646187 0.811897,0.968042 0.01001,0.01185 -0.01616,-0.02685 -0.027,-0.03796 -0.03342,-0.03425 -0.07181,-0.06368 -0.104443,-0.09889 -0.0108,-0.01164 -0.01765,-0.02643 -0.02648,-0.03965 -0.0817,-0.06865 -0.126474,-0.17593 -0.234784,-0.211487 -0.103911,-0.06972 -0.19716,-0.153728 -0.301922,-0.223208 -0.01237,-0.01328 -0.02316,-0.02823 -0.0371,-0.03985 -0.01488,-0.01241 -0.03609,-0.01701 -0.0487,-0.0317 -0.295742,-0.34481 -0.584728,-0.69537 -0.874768,-1.04499 -0.01037,-0.01249 -0.03673,-0.05345 -0.02621,-0.04107 0.272506,0.320825 0.540791,0.645212 0.812466,0.966742 0.01022,0.01209 -0.01869,-0.02558 -0.02804,-0.03837 -0.0839,-0.06362 -0.148981,-0.15113 -0.223341,-0.225431 -0.13835,-0.114096 0.04005,0.03802 -0.08737,-0.08701 -0.0542,-0.05318 -0.04469,-0.02708 -0.0993,-0.0787 -0.347715,-0.328716 0.07235,-1.396622 -0.932988,-1.090951 -0.0609,-0.07665 -0.08078,-0.101632 -0.07733,-0.09754 0.269106,0.319471 1.061803,1.289748 0.80592,0.959591 -0.284888,-0.367581 -0.674671,-0.73828 -0.946673,-1.151213 -0.07039,-0.0989 -0.130555,-0.203951 -0.195686,-0.30607 -0.07884,-0.111186 -0.144262,-0.230828 -0.213219,-0.348197 -0.0617,-0.10881 -0.122646,-0.217551 -0.198413,-0.317457 -0.09882,-0.150241 0.03327,0.04771 -0.06054,-0.08447 -0.0098,-0.01381 -0.03833,-0.0557 -0.02738,-0.04279 1.538804,1.813034 1.05052,1.182659 0.734422,0.885555 -0.07247,-0.09639 -0.16571,-0.175797 -0.243409,-0.267933 -0.0077,-0.01 -0.0213,-0.01749 -0.02311,-0.02996 -0.0047,-0.03246 0.05064,-0.116171 0.07426,-0.05103 0.0057,0.0158 0.0095,0.03225 0.01428,0.04837 0.04758,0.129802 0.09843,0.258177 0.153242,0.385087 0.07434,0.145786 0.160644,0.285327 0.229743,0.433925 0.07778,0.145801 0.157865,0.290158 0.235348,0.435957 0.04154,0.06888 0.03194,0.05604 0.07795,0.120388 0.01428,0.01998 0.05944,0.07809 0.04356,0.05937 -1.396235,-1.64528 -0.98035,-1.167688 -0.687018,-0.816403 0.160801,0.158435 0.295335,0.343011 0.471769,0.486724 0.131235,0.120658 0.261566,0.249973 0.419517,0.335103 0.107127,0.07971 0.21322,0.160303 0.331775,0.222618 0.123187,0.08477 0.231964,0.187772 0.348872,0.279503 0.355298,0.422907 0.742565,0.809988 1.029276,1.277067 0.274437,0.395071 0.647127,0.786212 -0.709751,-0.812355 -0.0098,-0.01154 0.02188,0.02138 0.02965,0.03437 0.0053,0.0088 0.0058,0.01979 0.0087,0.02969 -0.02703,0.03596 -0.04428,0.06291 -0.08148,0.09198 -0.0037,0.0029 -0.01692,-0.0039 -0.01396,-2.57e-4 1.465367,1.781059 1.025592,1.271291 0.765088,0.91218 -0.0705,-0.06395 0.0057,-0.0016 -0.08351,-0.05304 -0.05632,-0.03257 -0.09525,-0.09485 -0.140905,-0.139377 -0.0902,-0.06909 -0.163809,-0.160054 -0.244208,-0.23985 -0.0657,-0.08717 -0.154738,-0.150048 -0.224868,-0.232344 -0.37414,-0.300635 -0.81601,-1.286539 -1.068588,-1.227836 1.723356,2.053405 0.350047,0.449004 -0.181764,-0.244117 -0.05543,-0.109377 -0.104788,-0.22234 -0.182506,-0.31881 -0.05652,-0.08514 -0.105836,-0.171556 -0.143283,-0.26701 -0.04552,-0.08934 -0.07525,-0.187065 -0.128173,-0.272581 -0.333648,-0.404792 0.924128,1.121383 0.781233,0.931351 -0.272088,-0.361836 -0.578925,-0.696187 -0.868628,-1.04408 -0.0203,-0.02439 -0.07855,-0.09966 -0.05797,-0.0755 0.27316,0.320678 0.543812,0.643483 0.815719,0.965224 -0.06752,-0.08679 0.01543,0.01196 -0.06935,-0.06393 -0.367943,-0.329362 -0.664016,-0.762321 -0.97755,-1.137307 -0.04488,-0.08882 -0.115983,-0.162337 -0.152045,-0.25664 -0.06232,-0.09489 -0.126589,-0.188188 -0.186331,-0.284499 -0.256836,-0.449921 -0.866483,-0.924208 0.797273,0.590574 0.03812,0.02141 0.117525,0.239363 0.160368,0.282649 0.05689,0.106646 0.124533,0.216313 0.07819,0.34003 -0.06917,0.125563 -0.164484,0.185732 -0.262212,0.05093 -0.333689,-0.430418 -0.773049,-0.784899 -1.027328,-1.268597 -0.03762,-0.09264 -0.09085,-0.180629 -0.149743,-0.261059 -0.25038,-0.40132 -0.01597,-0.02109 0.783615,0.922356 0.01026,0.01209 -0.01545,-0.02801 -0.026,-0.03986 -0.01035,-0.01161 -0.02621,-0.01762 -0.03598,-0.02972 -0.0086,-0.01064 -0.01186,-0.02461 -0.01778,-0.03691 -0.0068,-0.0084 -0.01369,-0.01683 -0.02053,-0.02524 0.0163,-0.04568 0.02124,-0.05997 0.0209,-0.05632 -0.007,0.07681 -0.01809,0.153043 0.0025,0.231283 0.02211,0.203909 0.03021,0.407713 0.02474,0.612873 -9.26e-4,0.19902 -2.5e-5,0.398037 -0.0012,0.597056 5.29e-4,0.177475 -0.002,0.355079 0.006,0.532424 0.0077,0.124018 0.01847,0.250211 0.08198,0.360201 0.02202,0.03272 0.0965,0.124756 0.0711,0.09458 -1.399937,-1.663202 -0.994752,-1.186026 -0.700794,-0.828939 0.09159,0.07777 0.212337,0.110193 0.325755,0.144576 0.125951,0.04044 0.241431,0.105426 0.368205,0.142338 0.05589,0.0218 0.06895,0.03078 0.02269,0.08112 -0.04398,0.04787 -0.04594,0.02506 -0.07251,-0.02024 -0.03073,-0.13285 -0.005,-0.262076 0.09288,-0.361593 0.115825,-0.08373 0.241002,-0.08785 0.37279,-0.03302 0.06823,0.03303 0.114437,0.07196 0.174532,0.116203 0.05754,0.04236 0.122094,0.0702 0.16047,0.135212 0.297299,0.351491 0.595661,0.702083 0.891895,1.054471 0.07116,0.08465 0.151126,0.202345 0.158277,0.316682 0.0019,0.02947 -0.0067,0.05868 -0.01,0.08802 -0.312089,0.571847 -1.071197,-0.600122 -1.121778,-0.928713 2.52e-4,-0.140023 0.03921,-0.274826 0.125341,-0.387051 0.09681,-0.105061 0.203649,-0.173628 0.34961,-0.184018 0.118567,0.0057 0.241365,0.0104 0.349436,0.06483 0.0138,0.0097 0.02635,0.02146 0.0414,0.02907 0.01788,0.009 0.04337,0.0054 0.05652,0.02053 0.29853,0.343408 0.834945,0.715074 0.922499,1.227545 0.01538,0.132964 0.0089,0.268986 -0.03179,0.397333 -0.05477,0.121671 -0.135769,0.195808 -0.271047,0.216062 -0.140573,-0.0079 -0.256606,-0.07585 -0.359537,-0.17035 -0.05073,-0.05863 -0.105904,-0.114633 -0.160661,-0.169346 -0.01607,-0.01606 -0.03715,-0.02687 -0.05196,-0.0441 -0.29787,-0.346567 -0.59119,-0.697018 -0.885502,-1.046612 -0.01384,-0.01643 -0.02593,-0.03427 -0.03889,-0.05141 -0.08026,-0.09952 -0.124506,-0.215588 -0.154149,-0.339511 -0.03146,-0.135686 -0.07454,-0.268187 -0.09989,-0.405273 -0.02627,-0.131231 -0.03343,-0.267319 -0.08861,-0.391342 -0.0067,-0.0154 -0.04644,-0.10777 -0.05431,-0.122415 -0.0096,-0.01789 -0.0459,-0.06684 -0.03272,-0.05138 1.379067,1.618138 1.00898,1.202301 0.720558,0.852082 -0.08424,-0.08066 0.0011,-0.0053 -0.09737,-0.07308 -0.0622,-0.04278 -0.101131,-0.08582 -0.184158,-0.06468 -0.105915,0.01476 -0.202952,0.05054 -0.304545,0.08054 -0.0997,0.03055 -0.180748,0.09609 -0.280152,0.128201 -0.09814,0.02193 -0.18679,0.06675 -0.281676,0.09834 -0.09432,0.05013 -0.187832,0.101788 -0.28503,0.145897 -0.112353,0.05644 -0.225596,0.107492 -0.351504,0.125537 -0.125097,0.02331 -0.25372,0.0085 -0.379452,-0.0062 -0.367044,-0.416521 -1.13833,-0.747919 -0.82524,-1.285259 0.06407,-0.091 0.132946,-0.176162 0.215432,-0.251328 0.09426,-0.09014 0.175798,-0.192336 0.273014,-0.279246 0.0747,-0.06515 0.144373,-0.136443 0.225689,-0.193395 0.09249,-0.07048 0.198212,-0.117856 0.294394,-0.182909 0.12286,-0.05931 0.242155,-0.122293 0.381981,-0.129042 0.117856,0.0061 0.241093,0.01071 0.345663,0.07155 0.428414,0.361895 0.793014,0.779772 1.034684,1.273914 0.02834,0.04954 0.05717,0.101901 0.0895,0.148912 0.01138,0.01654 0.05069,0.06228 0.03769,0.04697 -0.848184,-0.999349 -1.079947,-1.251757 -0.756758,-0.898011 0.09296,0.07375 0.157579,0.171593 0.243774,0.250121 0.06163,0.08393 0.14698,0.150125 0.218768,0.225115 0.06094,0.08046 0.151209,0.128117 0.217276,0.203211 0.148278,0.08766 -0.05207,-0.03555 0.08109,0.06157 0.01522,0.01111 0.03717,0.0131 0.04945,0.0274 0.276302,0.321411 0.657021,0.739196 0.939428,1.134581 -1.593868,-1.899211 -0.962488,-1.078187 -0.633911,-0.778454 0.06325,0.08533 0.148363,0.154487 0.221665,0.230603 0.07597,0.05539 0.133806,0.131871 0.207272,0.190584 0.01467,0.0081 0.02933,0.01614 0.044,0.02424 0.01148,0.01048 0.02135,0.0231 0.03445,0.03146 0.01498,0.0096 0.03335,0.01275 0.04874,0.02167 0.04626,0.02674 0.06197,0.0737 0.11007,0.09767 0.06747,0.08246 0.163674,0.14519 0.254751,0.198524 0.02877,0.02093 0.0607,0.03747 0.08845,0.05974 0.01297,0.0104 0.02158,0.02564 0.03474,0.03579 0.04505,0.03476 0.09399,0.05171 0.114903,0.111511 0.01287,0.01283 0.02418,0.02742 0.0386,0.03848 0.01553,0.01191 0.03768,0.01513 0.05054,0.02988 0.326677,0.375068 0.682671,0.742899 0.963043,1.158708 -1.443719,-1.713976 -1.001875,-1.132081 -0.652845,-0.801402 0.01351,0.0083 0.02701,0.01654 0.04052,0.02479 0.0097,0.01064 0.01759,0.02341 0.02924,0.03193 0.01278,0.0093 0.03235,0.0088 0.04274,0.02072 0.2969,0.341231 1.271637,0.820634 0.771399,1.14169 -0.106549,-0.01648 -0.215845,-0.0091 -0.3218,-0.03169 -0.05206,-0.0109 -0.105817,-0.03321 -0.157884,-0.04112 -0.0625,-0.0095 -0.128368,0.0019 -0.190855,-0.0105 -0.05799,-0.0069 -0.115368,-0.01405 -0.171684,-0.03027 -0.03278,-0.0094 -0.06263,-0.02799 -0.09578,-0.03608 -0.01973,-0.0048 -0.04038,-0.0044 -0.06057,-0.0066 -0.115183,-0.01791 -0.222749,-0.06209 -0.340487,-0.05987 -0.05846,-0.0069 -0.116363,-0.01392 -0.173058,-0.03059 -0.03346,-0.0098 -0.06373,-0.02908 -0.09736,-0.03837 -0.02009,-0.0056 -0.04124,-0.0061 -0.06186,-0.0091 -0.118492,-0.02582 -0.219376,-0.08378 -0.333171,-0.122807 -0.09561,-0.05241 -0.191547,-0.09891 -0.288953,-0.147322 -0.127757,-0.02854 -0.246532,-0.0794 -0.357494,-0.148805 -0.09014,-0.07357 -0.196563,-0.121512 -0.303929,-0.164171 -0.08906,-0.06103 -0.203026,-0.08366 -0.30222,-0.124561 -0.0331,-0.01714 -0.06253,-0.04089 -0.0958,-0.0577 -0.06836,-0.03454 -0.145193,-0.04984 -0.214904,-0.08117 -0.05658,-0.03025 -0.114391,-0.03886 -0.173707,-0.06274 -0.232,-0.09342 0.113377,0.04035 -0.119853,-0.06102 -0.02389,-0.01037 -0.04939,-0.01656 -0.07409,-0.02484 -0.111703,-0.04622 -0.22575,-0.08852 -0.332801,-0.142851 -0.114017,-0.02807 -0.169015,-0.07866 -0.271113,-0.128167 -0.109082,-0.02011 -0.203184,-0.06902 -0.310646,-0.09313 -0.03066,-0.01328 -0.05793,-0.03366 -0.08867,-0.04679 -0.06834,-0.02918 -0.142427,-0.03622 -0.189575,-0.103224 -0.01713,-0.0094 -0.03427,-0.01889 -0.0514,-0.02835 -0.01543,-0.01164 -0.02954,-0.02529 -0.04629,-0.03496 -0.07547,-0.04361 -0.162144,-0.07056 -0.229225,-0.128836 -0.136679,-0.122182 -0.301998,-0.213834 -0.464902,-0.295817 0,0 -0.720763,-1.108798 -0.720763,-1.108798 z"
         inkscape:connector-curvature="0" />
      <path
         style="fill:#f9f9f9;stroke-width:0.09765813"
         id="path4420"
         d="m 25.193549,47.049659 c -0.104154,-0.191683 -0.2469,-0.356407 -0.383512,-0.524918 0.256595,0.307597 0.514793,0.613862 0.769786,0.92279 0.0224,0.02714 -0.04803,-0.05146 -0.07191,-0.07731 -0.04819,-0.05215 -0.09829,-0.102624 -0.144204,-0.15679 -0.301293,-0.355422 -0.601179,-0.712041 -0.900537,-1.069096 -0.02054,-0.0245 -0.03941,-0.05034 -0.05911,-0.07551 -0.07599,-0.120552 -0.166802,-0.229032 -0.253616,-0.341617 -0.331717,-0.392636 0.386553,0.457396 0.755813,0.90316 0.01616,0.0195 -0.03564,-0.03601 -0.05333,-0.05415 -0.02041,-0.02093 -0.0403,-0.04237 -0.06095,-0.06307 -0.180469,-0.180877 0.04266,0.0488 -0.155846,-0.157107 -0.206889,-0.235781 -0.41542,-0.470085 -0.624312,-0.704138 -0.495868,-0.544494 0.421905,0.466489 -1.044265,-1.229278 -0.247566,-0.286335 0.964825,1.166749 0.728687,0.870918 -0.342424,-0.428979 -0.717962,-0.878215 -1.083444,-1.306398 1.410057,1.671092 0.803983,0.917921 0.43319,0.584861 -0.0643,-0.04644 -0.0336,-0.02318 -0.0923,-0.06956 0,0 -0.71292,-1.115888 -0.71292,-1.115888 v 0 c 0.06826,0.04022 0.03573,0.01717 0.09734,0.06946 0.429392,0.257091 1.150552,1.476071 1.262007,1.390044 0.07412,0.09127 0.247273,0.303837 0.164291,0.206905 -0.248754,-0.290574 -0.98538,-1.170454 -0.741363,-0.87589 0.305901,0.369265 0.619468,0.732118 0.927023,1.100008 0.240828,0.28807 -0.487516,-0.571233 -0.726841,-0.860555 -0.03612,-0.04367 0.07801,0.08222 0.117013,0.123325 0.202225,0.234185 0.419204,0.455456 0.613292,0.696791 0.4155,0.437427 0.863356,0.844727 1.191642,1.363339 0.08396,0.111004 0.167409,0.222234 0.250024,0.334325 0.280247,0.34117 0.505848,0.615154 -0.713463,-0.843431 -0.02273,-0.02719 0.04836,0.05182 0.0724,0.07784 0.01068,0.01156 0.130863,0.142404 0.141925,0.15538 0.302395,0.354668 0.603115,0.71076 0.904673,1.066141 0.13565,0.172712 0.263849,0.34985 0.383403,0.534178 0,0 -0.990598,-0.874752 -0.990598,-0.874752 z"
         inkscape:connector-curvature="0" />
      <path
         style="fill:#f9f9f9;stroke-width:0.09765813"
         id="path4422"
         d="m 25.618397,20.159419 c -0.120892,0.170448 -0.24565,0.336447 -0.394032,0.484172 -0.08783,0.102877 -0.199677,0.179746 -0.302934,0.265412 -0.09301,0.06882 -0.178256,0.146648 -0.264078,0.223919 -0.07597,0.08562 -0.168304,0.154476 -0.260118,0.221994 -0.07452,0.07008 -0.155149,0.130531 -0.237099,0.191133 -0.05473,0.03585 -0.02928,0.01705 -0.07673,0.05588 0,0 -0.382979,-0.457624 -0.382979,-0.457624 v 0 c 0.0516,-0.04211 0.02519,-0.02303 0.07896,-0.05761 0.08188,-0.06079 0.163022,-0.120844 0.237877,-0.19081 0.09068,-0.06584 0.180251,-0.134444 0.25553,-0.218039 0.08648,-0.07779 0.172171,-0.156506 0.266466,-0.225022 0.10231,-0.08409 0.211521,-0.16101 0.300041,-0.260725 0.147601,-0.144027 0.27247,-0.306074 0.385456,-0.478441 0,0 0.393638,0.445769 0.393638,0.445769 z"
         inkscape:connector-curvature="0" />
    </g>
  </g>
</svg>
